<svg width="278" height="81" viewBox="0 0 278 81" fill="none" xmlns="http://www.w3.org/2000/svg">
<g clip-path="url(#clip0_15_111)">
<path d="M47.3209 1.95422L42.0463 3.76045V39.5453C42.0463 43.4244 44.0658 47.0351 47.3209 48.9764C47.3209 48.9764 59.8774 55.7764 59.8774 51.4511V15.7267C59.8774 11.8476 57.8578 8.23511 54.6027 6.29556L47.3192 1.95422H47.3209Z" fill="white"/>
<path d="M54.6045 6.29563L47.3209 1.9543C44.0658 0.0147449 40.0267 0.0147449 36.7716 1.9543L26.8854 7.84763C23.6303 9.78897 21.6107 13.3979 21.6107 17.2787V32.2476L54.6027 12.5819C57.1307 10.8574 59.8774 11.9667 59.8774 15.725C59.8774 11.8459 57.8578 8.23341 54.6027 6.29386L54.6045 6.29563Z" fill="white"/>
<path d="M36.7716 1.95608L26.8854 7.84941C23.6303 9.79074 21.6107 13.3996 21.6107 17.2805V34.9819C21.6107 34.9819 31.6107 29.021 35.2392 26.8574C38.8516 24.7045 39.4365 19.3516 39.4436 19.3019C39.4436 14.4361 39.4436 7.58274 39.4436 5.97919C39.4436 2.20852 43.0632 0.101856 47.3227 1.9543C44.0676 0.014745 40.0285 0.014745 36.7734 1.9543L36.7716 1.95608Z" fill="#D2D2D2"/>
<path d="M-0.000175347 62.8342L4.15271 66.6475L34.1687 48.756C37.4238 46.8146 39.4434 43.204 39.4434 39.3249V19.3018C39.4434 19.3018 38.8692 24.6973 35.2389 26.8609C31.6105 29.0244 21.6105 34.9835 21.6105 34.9835L5.27271 44.7222C2.0176 46.6618 -0.00195312 50.2724 -0.00195312 54.1533V62.836L-0.000175347 62.8342Z" fill="white"/>
<path d="M0 54.1497V62.8324C0 66.7133 2.01956 70.3222 5.27467 72.2635L15.1627 78.1569C18.4178 80.0964 22.4551 80.0964 25.7102 78.1569L38.2667 70.6724L5.27467 51.0066C2.56533 49.6093 2.12267 46.5995 5.27467 44.7186C2.01956 46.6582 0 50.2689 0 54.1497Z" fill="white"/>
<path d="M5.27467 72.2636L15.1627 78.157C18.4178 80.0965 22.4551 80.0965 25.7102 78.157L40.5582 69.3072C40.5582 69.3072 30.5582 63.3463 26.9298 61.1845C23.3173 59.0316 18.5351 61.1845 18.4907 61.2041C14.4089 63.6378 8.66133 67.0636 7.31556 67.8672C4.15289 69.7516 0.576 67.5703 0 62.8343C0 66.7152 2.01956 70.3241 5.27467 72.2654V72.2636Z" fill="#D2D2D2"/>
<path d="M74.7269 74.7044L75.8486 69.0849L45.8326 51.1933C42.5775 49.2538 38.5384 49.2538 35.2851 51.1933L18.4886 61.204C18.4886 61.204 23.3011 59.0191 26.9295 61.1826C30.5598 63.3462 40.558 69.3053 40.558 69.3053L56.8958 79.044C60.1509 80.9835 64.19 80.9835 67.4433 79.044L74.7269 74.7027V74.7044Z" fill="white"/>
<path d="M67.4435 79.0458L74.7271 74.7044C77.9822 72.7631 80 69.1524 80 65.2733V53.4849C80 49.6058 77.9804 45.9933 74.7253 44.0538L62.1689 36.5693V75.9009C62.3502 79.0227 60.048 80.9231 56.896 79.044C60.1511 80.9836 64.1902 80.9836 67.4435 79.044V79.0458Z" fill="white"/>
<path d="M79.9999 65.2716V53.4832C79.9999 49.604 77.9803 45.9916 74.7252 44.052L59.8772 35.2023C59.8772 35.2023 59.8772 47.124 59.8772 51.4494C59.8772 55.7747 64.0745 58.9552 64.1136 58.9854C68.1954 61.4174 73.943 64.8449 75.2888 65.6449C78.4514 67.5312 78.4088 71.8192 74.7252 74.7027C77.9803 72.7614 79.9981 69.1507 79.9981 65.2716H79.9999Z" fill="#D2D2D2"/>
<path d="M47.3208 48.9747L64.1155 58.9872C64.1155 58.9872 59.8772 55.7765 59.8772 51.4494L47.3208 48.9747Z" fill="white"/>
</g>
<path d="M96.5656 52.5605V17.3282H86.8686V7.79287H120.808L118.222 17.3282H110.141V52.5605H96.5656ZM117.054 52.5605V33.1666C117.054 30.2036 117.404 27.7525 118.104 25.8131C118.858 23.8198 120.07 21.9612 121.74 20.2373H137.983L138.064 20.3989C135.424 22.6077 133.565 24.8703 132.488 27.1868C131.464 29.5033 130.953 32.4393 130.953 35.9949V52.5605H117.054ZM139.246 17.1666V10.702H153.225V17.1666H139.246ZM139.246 52.5605V20.2373H153.225V52.5605H139.246ZM158.42 52.5605V20.2373H187.996C189.45 21.9073 190.581 24.1969 191.389 27.106C192.251 29.9612 192.682 33.0589 192.682 36.3989V52.5605H178.864V37.2878C178.864 33.6245 178.272 30.6616 177.086 28.3989C175.955 26.1363 174.339 24.3316 172.238 22.9848V52.5605H158.42ZM197.642 17.1666V10.702H211.622V17.1666H197.642ZM197.642 52.5605V20.2373H211.622V52.5605H197.642ZM219.633 52.5605C218.879 51.3754 218.206 49.5437 217.613 47.0656C217.074 44.5875 216.805 42.1094 216.805 39.6313V12.1565H230.623V20.2373H235.472V29.9343H230.623V36.803C230.623 40.3585 231.108 43.3754 232.078 45.8535C233.101 48.2777 234.313 50.4595 235.714 52.3989V52.5605H219.633ZM254.329 66.6212L254.249 66.4595C255.595 64.6818 256.727 62.6885 257.643 60.4797C258.558 58.271 259.097 55.6313 259.259 52.5605H243.663C242.208 50.8366 241.05 48.5471 240.188 45.6919C239.38 42.7828 238.976 39.6851 238.976 36.3989V20.2373H252.794V35.51C252.794 39.4427 253.441 42.4865 254.734 44.6414C256.026 46.7962 257.562 48.4124 259.34 49.4898V20.2373H273.158V53.6919C273.158 56.17 272.861 58.6481 272.269 61.1262C271.73 63.6043 271.084 65.436 270.329 66.6212H254.329Z" fill="white"/>
<path d="M96.9121 68.6414V59.4947H100.636C101.612 59.4947 102.465 59.6907 103.197 60.0827C103.938 60.466 104.513 61.0017 104.922 61.6899C105.331 62.3781 105.536 63.1708 105.536 64.068C105.536 64.9653 105.331 65.758 104.922 66.4462C104.513 67.1343 103.938 67.6744 103.197 68.0664C102.465 68.4497 101.612 68.6414 100.636 68.6414H96.9121ZM97.8791 67.8051H100.584C101.394 67.8051 102.095 67.6483 102.688 67.3347C103.289 67.0124 103.755 66.5725 104.086 66.015C104.417 65.4487 104.582 64.7998 104.582 64.068C104.582 63.3276 104.417 62.6786 104.086 62.1211C103.755 61.5636 103.289 61.128 102.688 60.8144C102.095 60.4921 101.394 60.331 100.584 60.331H97.8791V67.8051ZM116.41 63.5846H121.245V64.4078H116.41V63.5846ZM116.514 67.8051H122.015V68.6414H115.547V59.4947H121.819V60.331H116.514V67.8051ZM134.65 68.7198C133.971 68.7198 133.317 68.6109 132.69 68.3931C132.072 68.1666 131.593 67.8791 131.253 67.5307L131.632 66.7859C131.954 67.0995 132.385 67.3652 132.925 67.583C133.474 67.792 134.049 67.8966 134.65 67.8966C135.225 67.8966 135.691 67.8269 136.048 67.6875C136.414 67.5394 136.68 67.3434 136.845 67.0995C137.02 66.8556 137.107 66.5855 137.107 66.2894C137.107 65.9322 137.002 65.6447 136.793 65.427C136.593 65.2092 136.327 65.0393 135.996 64.9174C135.665 64.7867 135.299 64.6734 134.898 64.5776C134.498 64.4818 134.097 64.3816 133.696 64.2771C133.296 64.1638 132.925 64.0158 132.586 63.8328C132.255 63.6499 131.985 63.4103 131.776 63.1142C131.575 62.8093 131.475 62.4129 131.475 61.9251C131.475 61.4721 131.593 61.0583 131.828 60.6838C132.072 60.3005 132.442 59.9956 132.938 59.7691C133.435 59.5339 134.071 59.4163 134.846 59.4163C135.36 59.4163 135.87 59.4903 136.375 59.6384C136.88 59.7778 137.316 59.9738 137.682 60.2264L137.355 60.9974C136.963 60.736 136.545 60.5444 136.101 60.4224C135.665 60.3005 135.243 60.2395 134.833 60.2395C134.284 60.2395 133.831 60.3135 133.474 60.4616C133.117 60.6097 132.851 60.8101 132.677 61.0627C132.512 61.3066 132.429 61.5854 132.429 61.899C132.429 62.2561 132.529 62.5436 132.729 62.7614C132.938 62.9791 133.209 63.149 133.54 63.271C133.879 63.3929 134.249 63.5018 134.65 63.5976C135.051 63.6934 135.447 63.798 135.839 63.9112C136.24 64.0245 136.606 64.1726 136.937 64.3555C137.277 64.5297 137.547 64.7649 137.747 65.0611C137.956 65.3573 138.061 65.7449 138.061 66.224C138.061 66.6683 137.939 67.0821 137.695 67.4654C137.451 67.8399 137.076 68.1448 136.571 68.38C136.074 68.6065 135.434 68.7198 134.65 68.7198ZM148.007 68.6414V59.4947H148.974V68.6414H148.007ZM163.802 68.7198C163.105 68.7198 162.46 68.6065 161.868 68.38C161.284 68.1448 160.775 67.8182 160.339 67.4C159.912 66.9819 159.577 66.4897 159.333 65.9235C159.098 65.3573 158.98 64.7388 158.98 64.068C158.98 63.3973 159.098 62.7788 159.333 62.2126C159.577 61.6463 159.917 61.1542 160.352 60.736C160.788 60.3179 161.297 59.9956 161.881 59.7691C162.473 59.5339 163.118 59.4163 163.815 59.4163C164.512 59.4163 165.148 59.5252 165.723 59.743C166.306 59.9607 166.803 60.2918 167.212 60.736L166.611 61.3502C166.228 60.9669 165.805 60.6925 165.344 60.527C164.882 60.3614 164.385 60.2787 163.854 60.2787C163.288 60.2787 162.765 60.3745 162.286 60.5662C161.816 60.7491 161.402 61.0148 161.045 61.3632C160.696 61.703 160.422 62.1037 160.222 62.5654C160.03 63.0183 159.934 63.5192 159.934 64.068C159.934 64.6081 160.03 65.109 160.222 65.5707C160.422 66.0324 160.696 66.4374 161.045 66.7859C161.402 67.1256 161.816 67.3913 162.286 67.583C162.765 67.7659 163.284 67.8574 163.841 67.8574C164.364 67.8574 164.856 67.779 165.318 67.6222C165.788 67.4654 166.219 67.1997 166.611 66.8251L167.16 67.5568C166.724 67.9401 166.215 68.2319 165.631 68.4323C165.048 68.6239 164.438 68.7198 163.802 68.7198ZM166.232 67.4392V64.068H167.16V67.5568L166.232 67.4392ZM177.737 68.6414V59.4947H178.534L184.845 67.4392H184.427V59.4947H185.381V68.6414H184.584L178.285 60.6968H178.704V68.6414H177.737ZM207.466 68.6414V59.4947H208.433V67.8051H213.555V68.6414H207.466ZM221.537 68.6414L225.718 59.4947H226.672L230.853 68.6414H229.834L225.993 60.0566H226.385L222.543 68.6414H221.537ZM223.183 66.1979L223.471 65.4139H228.789L229.076 66.1979H223.183ZM240.207 68.6414V59.4947H244.153C245.172 59.4947 245.96 59.6994 246.518 60.1088C247.084 60.5182 247.367 61.0975 247.367 61.8467C247.367 62.3432 247.249 62.7614 247.014 63.1011C246.788 63.4408 246.474 63.6978 246.073 63.872C245.681 64.0462 245.25 64.1334 244.78 64.1334L245.002 63.8198C245.586 63.8198 246.087 63.9112 246.505 64.0942C246.931 64.2684 247.263 64.5341 247.498 64.8912C247.733 65.2397 247.851 65.6752 247.851 66.1979C247.851 66.9732 247.563 67.5742 246.988 68.0011C246.422 68.4279 245.564 68.6414 244.414 68.6414H240.207ZM241.173 67.8443H244.401C245.202 67.8443 245.816 67.7093 246.243 67.4392C246.67 67.1605 246.884 66.7206 246.884 66.1195C246.884 65.5271 246.67 65.0959 246.243 64.8259C245.816 64.5471 245.202 64.4078 244.401 64.4078H241.069V63.6107H244.087C244.819 63.6107 245.385 63.4713 245.786 63.1926C246.195 62.9138 246.4 62.5 246.4 61.9512C246.4 61.3937 246.195 60.9799 245.786 60.7099C245.385 60.4311 244.819 60.2918 244.087 60.2918H241.173V67.8443Z" fill="white"/>
<defs>
<clipPath id="clip0_15_111">
<rect width="80" height="80" fill="white" transform="translate(0 0.5)"/>
</clipPath>
</defs>
</svg>
