<svg width="278" height="80" viewBox="0 0 278 80" fill="none" xmlns="http://www.w3.org/2000/svg">
<g clip-path="url(#clip0_23_428)">
<path d="M47.3211 1.45422L42.0464 3.26045V39.0453C42.0464 42.9244 44.0659 46.5351 47.3211 48.4764C47.3211 48.4764 59.8775 55.2764 59.8775 50.9511V15.2267C59.8775 11.3476 57.8579 7.73511 54.6028 5.79556L47.3193 1.45422H47.3211Z" fill="url(#paint0_linear_23_428)"/>
<path d="M54.6046 5.79563L47.3211 1.4543C44.0659 -0.485255 40.0268 -0.485255 36.7717 1.4543L26.8855 7.34763C23.6304 9.28897 21.6108 12.8979 21.6108 16.7787V31.7476L54.6028 12.0819C57.1308 10.3574 59.8775 11.4667 59.8775 15.225C59.8775 11.3459 57.8579 7.73341 54.6028 5.79386L54.6046 5.79563Z" fill="url(#paint1_linear_23_428)"/>
<path d="M36.7717 1.45608L26.8855 7.34941C23.6304 9.29074 21.6108 12.8996 21.6108 16.7805V34.4819C21.6108 34.4819 31.6108 28.521 35.2393 26.3574C38.8517 24.2045 39.4366 18.8516 39.4437 18.8019C39.4437 13.9361 39.4437 7.08274 39.4437 5.47919C39.4437 1.70852 43.0633 -0.398144 47.3228 1.4543C44.0677 -0.485255 40.0286 -0.485255 36.7735 1.4543L36.7717 1.45608Z" fill="url(#paint2_linear_23_428)"/>
<path d="M6.87934e-05 62.3342L4.15296 66.1475L34.169 48.256C37.4241 46.3146 39.4436 42.704 39.4436 38.8249V18.8018C39.4436 18.8018 38.8694 24.1973 35.2392 26.3609C31.6107 28.5244 21.6107 34.4835 21.6107 34.4835L5.27296 44.2222C2.01785 46.1618 -0.00170898 49.7724 -0.00170898 53.6533V62.336L6.87934e-05 62.3342Z" fill="url(#paint3_linear_23_428)"/>
<path d="M0 53.6497V62.3324C0 66.2133 2.01956 69.8222 5.27467 71.7635L15.1627 77.6569C18.4178 79.5964 22.4551 79.5964 25.7102 77.6569L38.2667 70.1724L5.27467 50.5066C2.56533 49.1093 2.12267 46.0995 5.27467 44.2186C2.01956 46.1582 0 49.7689 0 53.6497Z" fill="url(#paint4_linear_23_428)"/>
<path d="M5.27467 71.7636L15.1627 77.657C18.4178 79.5965 22.4551 79.5965 25.7102 77.657L40.5582 68.8072C40.5582 68.8072 30.5582 62.8463 26.9298 60.6845C23.3173 58.5316 18.5351 60.6845 18.4907 60.7041C14.4089 63.1378 8.66133 66.5636 7.31556 67.3672C4.15289 69.2516 0.576 67.0703 0 62.3343C0 66.2152 2.01956 69.8241 5.27467 71.7654V71.7636Z" fill="url(#paint5_linear_23_428)"/>
<path d="M74.727 74.2044L75.8488 68.5849L45.8328 50.6933C42.5777 48.7538 38.5385 48.7538 35.2852 50.6933L18.4888 60.704C18.4888 60.704 23.3012 58.5191 26.9297 60.6826C30.5599 62.8462 40.5581 68.8053 40.5581 68.8053L56.8959 78.544C60.151 80.4835 64.1901 80.4835 67.4434 78.544L74.727 74.2027V74.2044Z" fill="url(#paint6_linear_23_428)"/>
<path d="M67.4435 78.5458L74.7271 74.2044C77.9822 72.2631 80 68.6524 80 64.7733V52.9849C80 49.1058 77.9804 45.4933 74.7253 43.5538L62.1689 36.0693V75.4009C62.3502 78.5227 60.048 80.4231 56.896 78.544C60.1511 80.4836 64.1902 80.4836 67.4435 78.544V78.5458Z" fill="url(#paint7_linear_23_428)"/>
<path d="M80.0001 64.7716V52.9832C80.0001 49.104 77.9806 45.4916 74.7254 43.552L59.8774 34.7023C59.8774 34.7023 59.8774 46.624 59.8774 50.9494C59.8774 55.2747 64.0748 58.4552 64.1139 58.4854C68.1957 60.9174 73.9432 64.3449 75.289 65.1449C78.4517 67.0312 78.409 71.3192 74.7254 74.2027C77.9806 72.2614 79.9983 68.6507 79.9983 64.7716H80.0001Z" fill="url(#paint8_linear_23_428)"/>
<path d="M47.321 48.4747L64.1157 58.4872C64.1157 58.4872 59.8775 55.2765 59.8775 50.9494L47.321 48.4747Z" fill="url(#paint9_linear_23_428)"/>
</g>
<path d="M96.5656 52.0605V16.8282H86.8686V7.29287H120.808L118.222 16.8282H110.141V52.0605H96.5656ZM117.054 52.0605V32.6666C117.054 29.7036 117.404 27.2525 118.104 25.3131C118.858 23.3198 120.07 21.4612 121.74 19.7373H137.983L138.064 19.8989C135.424 22.1077 133.565 24.3703 132.488 26.6868C131.464 29.0033 130.953 31.9393 130.953 35.4949V52.0605H117.054ZM139.246 16.6666V10.202H153.225V16.6666H139.246ZM139.246 52.0605V19.7373H153.225V52.0605H139.246ZM158.42 52.0605V19.7373H187.996C189.45 21.4073 190.581 23.6969 191.389 26.606C192.251 29.4612 192.682 32.5589 192.682 35.8989V52.0605H178.864V36.7878C178.864 33.1245 178.272 30.1616 177.086 27.8989C175.955 25.6363 174.339 23.8316 172.238 22.4848V52.0605H158.42ZM197.642 16.6666V10.202H211.622V16.6666H197.642ZM197.642 52.0605V19.7373H211.622V52.0605H197.642ZM219.633 52.0605C218.879 50.8754 218.206 49.0437 217.613 46.5656C217.074 44.0875 216.805 41.6094 216.805 39.1313V11.6565H230.623V19.7373H235.472V29.4343H230.623V36.303C230.623 39.8585 231.108 42.8754 232.078 45.3535C233.101 47.7777 234.313 49.9595 235.714 51.8989V52.0605H219.633ZM254.329 66.1212L254.249 65.9595C255.595 64.1818 256.727 62.1885 257.643 59.9797C258.558 57.771 259.097 55.1313 259.259 52.0605H243.663C242.208 50.3366 241.05 48.0471 240.188 45.1919C239.38 42.2828 238.976 39.1851 238.976 35.8989V19.7373H252.794V35.01C252.794 38.9427 253.441 41.9865 254.734 44.1414C256.026 46.2962 257.562 47.9124 259.34 48.9898V19.7373H273.158V53.1919C273.158 55.67 272.861 58.1481 272.269 60.6262C271.73 63.1043 271.084 64.936 270.329 66.1212H254.329Z" fill="black"/>
<path d="M96.912 68.1414V58.9947H100.636C101.612 58.9947 102.465 59.1907 103.197 59.5827C103.938 59.966 104.512 60.5017 104.922 61.1899C105.331 61.8781 105.536 62.6708 105.536 63.568C105.536 64.4653 105.331 65.258 104.922 65.9462C104.512 66.6343 103.938 67.1744 103.197 67.5664C102.465 67.9497 101.612 68.1414 100.636 68.1414H96.912ZM97.8789 67.3051H100.584C101.394 67.3051 102.095 67.1483 102.687 66.8347C103.289 66.5124 103.755 66.0725 104.086 65.515C104.417 64.9487 104.582 64.2998 104.582 63.568C104.582 62.8276 104.417 62.1786 104.086 61.6211C103.755 61.0636 103.289 60.628 102.687 60.3144C102.095 59.9921 101.394 59.831 100.584 59.831H97.8789V67.3051ZM116.41 63.0846H121.244V63.9078H116.41V63.0846ZM116.514 67.3051H122.015V68.1414H115.547V58.9947H121.819V59.831H116.514V67.3051ZM134.65 68.2198C133.971 68.2198 133.317 68.1109 132.69 67.8931C132.072 67.6666 131.592 67.3791 131.253 67.0307L131.632 66.2859C131.954 66.5995 132.385 66.8652 132.925 67.083C133.474 67.292 134.049 67.3966 134.65 67.3966C135.225 67.3966 135.691 67.3269 136.048 67.1875C136.414 67.0394 136.68 66.8434 136.845 66.5995C137.019 66.3556 137.107 66.0855 137.107 65.7894C137.107 65.4322 137.002 65.1447 136.793 64.927C136.593 64.7092 136.327 64.5393 135.996 64.4174C135.665 64.2867 135.299 64.1734 134.898 64.0776C134.498 63.9818 134.097 63.8816 133.696 63.7771C133.295 63.6638 132.925 63.5158 132.586 63.3328C132.255 63.1499 131.984 62.9103 131.775 62.6142C131.575 62.3093 131.475 61.9129 131.475 61.4251C131.475 60.9721 131.592 60.5583 131.828 60.1838C132.072 59.8005 132.442 59.4956 132.938 59.2691C133.435 59.0339 134.071 58.9163 134.846 58.9163C135.36 58.9163 135.87 58.9903 136.375 59.1384C136.88 59.2778 137.316 59.4738 137.682 59.7264L137.355 60.4974C136.963 60.236 136.545 60.0444 136.1 59.9224C135.665 59.8005 135.242 59.7395 134.833 59.7395C134.284 59.7395 133.831 59.8135 133.474 59.9616C133.117 60.1097 132.851 60.3101 132.677 60.5627C132.511 60.8066 132.429 61.0854 132.429 61.399C132.429 61.7561 132.529 62.0436 132.729 62.2614C132.938 62.4791 133.208 62.649 133.539 62.771C133.879 62.8929 134.249 63.0018 134.65 63.0976C135.051 63.1934 135.447 63.298 135.839 63.4112C136.24 63.5245 136.606 63.6726 136.937 63.8555C137.276 64.0297 137.547 64.2649 137.747 64.5611C137.956 64.8573 138.06 65.2449 138.06 65.724C138.06 66.1683 137.939 66.5821 137.695 66.9654C137.451 67.3399 137.076 67.6448 136.571 67.88C136.074 68.1065 135.434 68.2198 134.65 68.2198ZM148.007 68.1414V58.9947H148.974V68.1414H148.007ZM163.802 68.2198C163.105 68.2198 162.46 68.1065 161.868 67.88C161.284 67.6448 160.775 67.3182 160.339 66.9C159.912 66.4819 159.577 65.9897 159.333 65.4235C159.098 64.8573 158.98 64.2388 158.98 63.568C158.98 62.8973 159.098 62.2788 159.333 61.7126C159.577 61.1463 159.917 60.6542 160.352 60.236C160.788 59.8179 161.297 59.4956 161.881 59.2691C162.473 59.0339 163.118 58.9163 163.815 58.9163C164.512 58.9163 165.148 59.0252 165.723 59.243C166.306 59.4607 166.803 59.7918 167.212 60.236L166.611 60.8502C166.228 60.4669 165.805 60.1925 165.344 60.027C164.882 59.8614 164.385 59.7787 163.854 59.7787C163.288 59.7787 162.765 59.8745 162.286 60.0662C161.816 60.2491 161.402 60.5148 161.045 60.8632C160.696 61.203 160.422 61.6037 160.221 62.0654C160.03 62.5183 159.934 63.0192 159.934 63.568C159.934 64.1081 160.03 64.609 160.221 65.0707C160.422 65.5324 160.696 65.9374 161.045 66.2859C161.402 66.6256 161.816 66.8913 162.286 67.083C162.765 67.2659 163.283 67.3574 163.841 67.3574C164.364 67.3574 164.856 67.279 165.317 67.1222C165.788 66.9654 166.219 66.6997 166.611 66.3251L167.16 67.0568C166.724 67.4401 166.215 67.7319 165.631 67.9323C165.047 68.1239 164.438 68.2198 163.802 68.2198ZM166.232 66.9392V63.568H167.16V67.0568L166.232 66.9392ZM177.736 68.1414V58.9947H178.534L184.845 66.9392H184.427V58.9947H185.38V68.1414H184.583L178.285 60.1968H178.703V68.1414H177.736ZM207.466 68.1414V58.9947H208.433V67.3051H213.555V68.1414H207.466ZM221.537 68.1414L225.718 58.9947H226.672L230.853 68.1414H229.834L225.993 59.5566H226.385L222.543 68.1414H221.537ZM223.183 65.6979L223.471 64.9139H228.789L229.076 65.6979H223.183ZM240.206 68.1414V58.9947H244.153C245.172 58.9947 245.96 59.1994 246.518 59.6088C247.084 60.0182 247.367 60.5975 247.367 61.3467C247.367 61.8432 247.249 62.2614 247.014 62.6011C246.788 62.9408 246.474 63.1978 246.073 63.372C245.681 63.5462 245.25 63.6334 244.78 63.6334L245.002 63.3198C245.585 63.3198 246.086 63.4112 246.505 63.5942C246.931 63.7684 247.262 64.0341 247.498 64.3912C247.733 64.7397 247.85 65.1752 247.85 65.6979C247.85 66.4732 247.563 67.0742 246.988 67.5011C246.422 67.9279 245.564 68.1414 244.414 68.1414H240.206ZM241.173 67.3443H244.401C245.202 67.3443 245.816 67.2093 246.243 66.9392C246.67 66.6605 246.883 66.2206 246.883 65.6195C246.883 65.0271 246.67 64.5959 246.243 64.3259C245.816 64.0471 245.202 63.9078 244.401 63.9078H241.069V63.1107H244.087C244.819 63.1107 245.385 62.9713 245.786 62.6926C246.195 62.4138 246.4 62 246.4 61.4512C246.4 60.8937 246.195 60.4799 245.786 60.2099C245.385 59.9311 244.819 59.7918 244.087 59.7918H241.173V67.3443Z" fill="black"/>
<defs>
<linearGradient id="paint0_linear_23_428" x1="50.9619" y1="48.0889" x2="50.9619" y2="13.6604" gradientUnits="userSpaceOnUse">
<stop stop-color="#57C5C8"/>
<stop offset="1" stop-color="#DBF0EF"/>
</linearGradient>
<linearGradient id="paint1_linear_23_428" x1="51.8491" y1="4.99919" x2="40.0108" y2="13.7476" gradientUnits="userSpaceOnUse">
<stop stop-color="#42C2CC"/>
<stop offset="1" stop-color="#437271"/>
</linearGradient>
<linearGradient id="paint2_linear_23_428" x1="27.2891" y1="6.5423" x2="38.0784" y2="23.7174" gradientUnits="userSpaceOnUse">
<stop stop-color="#57C5C8"/>
<stop offset="1" stop-color="#DBF0EF"/>
</linearGradient>
<linearGradient id="paint3_linear_23_428" x1="37.2984" y1="33.5339" x2="8.29076" y2="50.2814" gradientUnits="userSpaceOnUse">
<stop stop-color="#55C2B5"/>
<stop offset="1" stop-color="#0FB14B"/>
</linearGradient>
<linearGradient id="paint4_linear_23_428" x1="12.3609" y1="48.7289" x2="18.3947" y2="65.2249" gradientUnits="userSpaceOnUse">
<stop stop-color="#59BB64"/>
<stop offset="1" stop-color="#068643"/>
</linearGradient>
<linearGradient id="paint5_linear_23_428" x1="13.9603" y1="77.5559" x2="23.4319" y2="59.6393" gradientUnits="userSpaceOnUse">
<stop stop-color="#55C2B5"/>
<stop offset="1" stop-color="#0FB14B"/>
</linearGradient>
<linearGradient id="paint6_linear_23_428" x1="32.0007" y1="55.5955" x2="60.7635" y2="72.2017" gradientUnits="userSpaceOnUse">
<stop stop-color="#E4E75D"/>
<stop offset="1" stop-color="#61B446"/>
</linearGradient>
<linearGradient id="paint7_linear_23_428" x1="55.312" y1="75.4738" x2="65.3387" y2="60.6347" gradientUnits="userSpaceOnUse">
<stop stop-color="#DEE21E"/>
<stop offset="1" stop-color="#62AA45"/>
</linearGradient>
<linearGradient id="paint8_linear_23_428" x1="80.4924" y1="53.9455" x2="60.717" y2="54.6828" gradientUnits="userSpaceOnUse">
<stop stop-color="#E4E75D"/>
<stop offset="1" stop-color="#61B446"/>
</linearGradient>
<linearGradient id="paint9_linear_23_428" x1="55.7193" y1="48.089" x2="55.7193" y2="13.6605" gradientUnits="userSpaceOnUse">
<stop stop-color="#57C5C8"/>
<stop offset="1" stop-color="#DBF0EF"/>
</linearGradient>
<clipPath id="clip0_23_428">
<rect width="80" height="80" fill="white"/>
</clipPath>
</defs>
</svg>
