<svg width="250" height="72" viewBox="0 0 250 72" fill="none" xmlns="http://www.w3.org/2000/svg">
<g clip-path="url(#clip0_23_975)">
<path d="M42.589 1.30859L37.8418 2.93419V35.1406C37.8418 38.6318 39.6594 41.8814 42.589 43.6286C42.589 43.6286 53.8898 49.7486 53.8898 45.8558V13.7038C53.8898 10.2126 52.0722 6.96139 49.1426 5.21579L42.5874 1.30859H42.589Z" fill="url(#paint0_linear_23_975)"/>
<path d="M49.1441 5.21591L42.5889 1.30871C39.6593 -0.436888 36.0241 -0.436888 33.0945 1.30871L24.1969 6.61271C21.2673 8.35991 19.4497 11.6079 19.4497 15.1007V28.5727L49.1425 10.8735C51.4177 9.32151 53.8897 10.3199 53.8897 13.7023C53.8897 10.2111 52.0721 6.95991 49.1425 5.21431L49.1441 5.21591Z" fill="url(#paint1_linear_23_975)"/>
<path d="M33.0945 1.31031L24.1969 6.61431C21.2673 8.36151 19.4497 11.6095 19.4497 15.1023V31.0335C19.4497 31.0335 28.4497 25.6687 31.7153 23.7215C34.9665 21.7839 35.4929 16.9663 35.4993 16.9215C35.4993 12.5423 35.4993 6.37431 35.4993 4.93111C35.4993 1.53751 38.7569 -0.358488 42.5905 1.30871C39.6609 -0.436888 36.0257 -0.436888 33.0961 1.30871L33.0945 1.31031Z" fill="url(#paint2_linear_23_975)"/>
<path d="M0.000135156 56.1008L3.73774 59.5328L30.7521 43.4304C33.6817 41.6832 35.4993 38.4336 35.4993 34.9424V16.9216C35.4993 16.9216 34.9825 21.7776 31.7153 23.7248C28.4497 25.672 19.4497 31.0352 19.4497 31.0352L4.74574 39.8C1.81614 41.5456 -0.00146484 44.7952 -0.00146484 48.288V56.1024L0.000135156 56.1008Z" fill="url(#paint3_linear_23_975)"/>
<path d="M0 48.2846V56.099C0 59.5918 1.8176 62.8398 4.7472 64.587L13.6464 69.891C16.576 71.6366 20.2096 71.6366 23.1392 69.891L34.44 63.155L4.7472 45.4558C2.3088 44.1982 1.9104 41.4894 4.7472 39.7966C1.8176 41.5422 0 44.7918 0 48.2846Z" fill="url(#paint4_linear_23_975)"/>
<path d="M4.7472 64.5871L13.6464 69.8911C16.576 71.6367 20.2096 71.6367 23.1392 69.8911L36.5024 61.9263C36.5024 61.9263 27.5024 56.5615 24.2368 54.6159C20.9856 52.6783 16.6816 54.6159 16.6416 54.6335C12.968 56.8239 7.7952 59.9071 6.584 60.6303C3.7376 62.3263 0.5184 60.3631 0 56.1007C0 59.5935 1.8176 62.8415 4.7472 64.5887V64.5871Z" fill="url(#paint5_linear_23_975)"/>
<path d="M67.2543 66.7839L68.2639 61.7263L41.2495 45.6239C38.3199 43.8783 34.6847 43.8783 31.7567 45.6239L16.6399 54.6335C16.6399 54.6335 20.9711 52.6671 24.2367 54.6143C27.5039 56.5615 36.5023 61.9247 36.5023 61.9247L51.2063 70.6895C54.1359 72.4351 57.7711 72.4351 60.6991 70.6895L67.2543 66.7823V66.7839Z" fill="url(#paint6_linear_23_975)"/>
<path d="M60.6993 70.691L67.2545 66.7838C70.1841 65.0366 72.0001 61.787 72.0001 58.2958V47.6862C72.0001 44.195 70.1825 40.9438 67.2529 39.1982L55.9521 32.4622V67.8606C56.1153 70.6702 54.0433 72.3806 51.2065 70.6894C54.1361 72.435 57.7713 72.435 60.6993 70.6894V70.691Z" fill="url(#paint7_linear_23_975)"/>
<path d="M72 58.2943V47.6847C72 44.1935 70.1824 40.9423 67.2528 39.1967L53.8896 31.2319C53.8896 31.2319 53.8896 41.9615 53.8896 45.8543C53.8896 49.7471 57.6673 52.6095 57.7025 52.6367C61.3761 54.8255 66.5489 57.9103 67.76 58.6303C70.6065 60.3279 70.568 64.1871 67.2528 66.7823C70.1824 65.0351 71.9984 61.7855 71.9984 58.2943H72Z" fill="url(#paint8_linear_23_975)"/>
<path d="M42.5889 43.6272L57.7041 52.6384C57.7041 52.6384 53.8897 49.7488 53.8897 45.8544L42.5889 43.6272Z" fill="url(#paint9_linear_23_975)"/>
</g>
<path d="M86.9091 46.4546V14.7455H78.1819V6.16368H108.727L106.4 14.7455H99.1273V46.4546H86.9091ZM105.348 46.4546V29C105.348 26.3334 105.663 24.1273 106.294 22.3819C106.973 20.5879 108.063 18.9152 109.567 17.3637H124.185L124.257 17.5091C121.882 19.497 120.209 21.5334 119.239 23.6182C118.318 25.7031 117.857 28.3455 117.857 31.5455V46.4546H105.348ZM125.321 14.6V8.78186H137.903V14.6H125.321ZM125.321 46.4546V17.3637H137.903V46.4546H125.321ZM142.578 46.4546V17.3637H169.196C170.505 18.8667 171.523 20.9273 172.251 23.5455C173.026 26.1152 173.414 28.9031 173.414 31.9091V46.4546H160.978V32.7091C160.978 29.4122 160.445 26.7455 159.378 24.7091C158.36 22.6728 156.905 21.0485 155.014 19.8364V46.4546H142.578ZM177.878 14.6V8.78186H190.46V14.6H177.878ZM177.878 46.4546V17.3637H190.46V46.4546H177.878ZM197.67 46.4546C196.991 45.3879 196.385 43.7394 195.852 41.5091C195.367 39.2788 195.124 37.0485 195.124 34.8182V10.091H207.561V17.3637H211.924V26.091H207.561V32.2728C207.561 35.4728 207.997 38.1879 208.87 40.4182C209.791 42.6 210.882 44.5637 212.143 46.3091V46.4546H197.67ZM228.897 59.1091L228.824 58.9637C230.036 57.3637 231.054 55.5697 231.878 53.5819C232.703 51.594 233.188 49.2182 233.333 46.4546H219.297C217.988 44.9031 216.945 42.8425 216.169 40.2728C215.442 37.6546 215.078 34.8667 215.078 31.9091V17.3637H227.515V31.1091C227.515 34.6485 228.097 37.3879 229.26 39.3273C230.424 41.2667 231.806 42.7213 233.406 43.691V17.3637H245.842V47.4728C245.842 49.7031 245.575 51.9334 245.042 54.1637C244.557 56.394 243.975 58.0425 243.297 59.1091H228.897Z" fill="#57C5C8"/>
<path d="M87.0681 61.7273V53.4953H90.5373C91.4153 53.4953 92.1876 53.6678 92.854 54.0127C93.5282 54.3577 94.0496 54.8399 94.4181 55.4592C94.7944 56.0786 94.9825 56.7959 94.9825 57.6113C94.9825 58.4267 94.7944 59.144 94.4181 59.7634C94.0496 60.3827 93.5282 60.8649 92.854 61.2099C92.1876 61.5548 91.4153 61.7273 90.5373 61.7273H87.0681ZM88.2441 60.7042H90.4667C91.1488 60.7042 91.7368 60.5748 92.2307 60.3161C92.7325 60.0574 93.1205 59.6967 93.3949 59.2342C93.6693 58.7638 93.8065 58.2228 93.8065 57.6113C93.8065 56.9919 93.6693 56.451 93.3949 55.9884C93.1205 55.5259 92.7325 55.1652 92.2307 54.9065C91.7368 54.6478 91.1488 54.5184 90.4667 54.5184H88.2441V60.7042ZM104.91 57.0468H109.144V58.0464H104.91V57.0468ZM105.016 60.7042H109.814V61.7273H103.84V53.4953H109.649V54.5184H105.016V60.7042ZM121.173 61.8214C120.546 61.8214 119.946 61.7273 119.374 61.5391C118.802 61.3431 118.351 61.0923 118.021 60.7865L118.457 59.8692C118.77 60.1436 119.17 60.371 119.656 60.5513C120.142 60.7316 120.648 60.8218 121.173 60.8218C121.651 60.8218 122.039 60.7669 122.337 60.6571C122.635 60.5474 122.855 60.3984 122.996 60.2103C123.137 60.0143 123.208 59.7947 123.208 59.5517C123.208 59.2695 123.114 59.0421 122.925 58.8696C122.745 58.6971 122.506 58.5599 122.208 58.458C121.918 58.3483 121.597 58.2542 121.244 58.1758C120.891 58.0974 120.534 58.0072 120.174 57.9053C119.821 57.7955 119.495 57.6583 119.197 57.4937C118.907 57.3291 118.672 57.1095 118.492 56.8351C118.312 56.5529 118.221 56.1923 118.221 55.7532C118.221 55.3299 118.331 54.9418 118.551 54.589C118.778 54.2283 119.123 53.9422 119.586 53.7305C120.056 53.511 120.652 53.4012 121.373 53.4012C121.851 53.4012 122.326 53.4639 122.796 53.5894C123.266 53.7148 123.674 53.8951 124.019 54.1303L123.631 55.0711C123.278 54.8359 122.906 54.6674 122.514 54.5655C122.122 54.4557 121.742 54.4008 121.373 54.4008C120.911 54.4008 120.53 54.4596 120.232 54.5772C119.934 54.6948 119.715 54.8516 119.574 55.0476C119.441 55.2436 119.374 55.4631 119.374 55.7062C119.374 55.9963 119.464 56.2275 119.644 56.4C119.833 56.5725 120.072 56.7097 120.362 56.8116C120.66 56.9135 120.985 57.0076 121.338 57.0939C121.691 57.1723 122.043 57.2624 122.396 57.3643C122.757 57.4663 123.082 57.5995 123.372 57.7642C123.67 57.9288 123.909 58.1483 124.09 58.4227C124.27 58.6971 124.36 59.0499 124.36 59.4811C124.36 59.8967 124.246 60.2847 124.019 60.6454C123.792 60.9982 123.439 61.2843 122.961 61.5039C122.49 61.7155 121.894 61.8214 121.173 61.8214ZM133.134 61.7273V53.4953H134.31V61.7273H133.134ZM147.547 61.8214C146.912 61.8214 146.328 61.7195 145.795 61.5156C145.262 61.3039 144.799 61.0099 144.407 60.6336C144.015 60.2495 143.709 59.8026 143.49 59.293C143.27 58.7834 143.16 58.2228 143.16 57.6113C143.16 56.9998 143.27 56.4392 143.49 55.9296C143.709 55.42 144.015 54.9771 144.407 54.6007C144.807 54.2166 145.273 53.9226 145.806 53.7187C146.34 53.5071 146.928 53.4012 147.57 53.4012C148.221 53.4012 148.817 53.5071 149.358 53.7187C149.899 53.9304 150.358 54.2479 150.734 54.6713L150.005 55.4004C149.668 55.0711 149.299 54.832 148.899 54.6831C148.507 54.5263 148.08 54.4479 147.617 54.4479C147.147 54.4479 146.708 54.5263 146.3 54.6831C145.9 54.8399 145.552 55.0594 145.254 55.3416C144.964 55.6239 144.736 55.961 144.572 56.353C144.415 56.7371 144.336 57.1566 144.336 57.6113C144.336 58.0582 144.415 58.4776 144.572 58.8696C144.736 59.2538 144.964 59.5909 145.254 59.881C145.552 60.1632 145.9 60.3827 146.3 60.5395C146.7 60.6963 147.135 60.7747 147.606 60.7747C148.045 60.7747 148.464 60.7081 148.864 60.5748C149.272 60.4337 149.648 60.2024 149.993 59.881L150.663 60.7747C150.256 61.1197 149.777 61.3823 149.229 61.5627C148.688 61.7351 148.127 61.8214 147.547 61.8214ZM149.534 60.6219V57.5643H150.663V60.7747L149.534 60.6219ZM159.971 61.7273V53.4953H160.935L166.38 60.2573H165.874V53.4953H167.05V61.7273H166.086L160.641 54.9653H161.147V61.7273H159.971ZM186.785 61.7273V53.4953H187.961V60.7042H192.418V61.7273H186.785ZM199.577 61.7273L203.304 53.4953H204.469L208.208 61.7273H206.974L203.645 54.1539H204.116L200.788 61.7273H199.577ZM201.164 59.6693L201.482 58.7285H206.115L206.456 59.6693H201.164ZM216.492 61.7273V53.4953H220.185C221.134 53.4953 221.863 53.6874 222.372 54.0715C222.882 54.4479 223.137 54.9653 223.137 55.6239C223.137 56.0707 223.035 56.4471 222.831 56.7528C222.635 57.0586 222.368 57.2938 222.031 57.4584C221.694 57.6231 221.33 57.7054 220.938 57.7054L221.149 57.3526C221.62 57.3526 222.035 57.4349 222.396 57.5995C222.757 57.7642 223.043 58.0072 223.254 58.3287C223.466 58.6423 223.572 59.0343 223.572 59.5047C223.572 60.2103 223.305 60.7591 222.772 61.1511C222.247 61.5352 221.463 61.7273 220.42 61.7273H216.492ZM217.668 60.7747H220.373C221.024 60.7747 221.522 60.665 221.867 60.4455C222.212 60.2259 222.384 59.881 222.384 59.4106C222.384 58.9323 222.212 58.5835 221.867 58.3639C221.522 58.1444 221.024 58.0347 220.373 58.0347H217.563V57.0821H220.079C220.675 57.0821 221.138 56.9723 221.467 56.7528C221.796 56.5333 221.961 56.204 221.961 55.765C221.961 55.3259 221.796 54.9967 221.467 54.7771C221.138 54.5576 220.675 54.4479 220.079 54.4479H217.668V60.7747Z" fill="#0FB14B"/>
<defs>
<linearGradient id="paint0_linear_23_975" x1="45.8658" y1="43.2798" x2="45.8658" y2="12.2942" gradientUnits="userSpaceOnUse">
<stop stop-color="#57C5C8"/>
<stop offset="1" stop-color="#DBF0EF"/>
</linearGradient>
<linearGradient id="paint1_linear_23_975" x1="46.6641" y1="4.49911" x2="36.0097" y2="12.3727" gradientUnits="userSpaceOnUse">
<stop stop-color="#42C2CC"/>
<stop offset="1" stop-color="#437271"/>
</linearGradient>
<linearGradient id="paint2_linear_23_975" x1="24.5601" y1="5.88791" x2="34.2705" y2="21.3455" gradientUnits="userSpaceOnUse">
<stop stop-color="#57C5C8"/>
<stop offset="1" stop-color="#DBF0EF"/>
</linearGradient>
<linearGradient id="paint3_linear_23_975" x1="33.5686" y1="30.1805" x2="7.46175" y2="45.2533" gradientUnits="userSpaceOnUse">
<stop stop-color="#55C2B5"/>
<stop offset="1" stop-color="#0FB14B"/>
</linearGradient>
<linearGradient id="paint4_linear_23_975" x1="11.1248" y1="43.8558" x2="16.5552" y2="58.7022" gradientUnits="userSpaceOnUse">
<stop stop-color="#59BB64"/>
<stop offset="1" stop-color="#068643"/>
</linearGradient>
<linearGradient id="paint5_linear_23_975" x1="12.5643" y1="69.8001" x2="21.0887" y2="53.6752" gradientUnits="userSpaceOnUse">
<stop stop-color="#55C2B5"/>
<stop offset="1" stop-color="#0FB14B"/>
</linearGradient>
<linearGradient id="paint6_linear_23_975" x1="28.8007" y1="50.0358" x2="54.6872" y2="64.9814" gradientUnits="userSpaceOnUse">
<stop stop-color="#E4E75D"/>
<stop offset="1" stop-color="#61B446"/>
</linearGradient>
<linearGradient id="paint7_linear_23_975" x1="49.7809" y1="67.9262" x2="58.8049" y2="54.571" gradientUnits="userSpaceOnUse">
<stop stop-color="#DEE21E"/>
<stop offset="1" stop-color="#62AA45"/>
</linearGradient>
<linearGradient id="paint8_linear_23_975" x1="72.4431" y1="48.5509" x2="54.6452" y2="49.2144" gradientUnits="userSpaceOnUse">
<stop stop-color="#E4E75D"/>
<stop offset="1" stop-color="#61B446"/>
</linearGradient>
<linearGradient id="paint9_linear_23_975" x1="50.1473" y1="43.28" x2="50.1473" y2="12.2944" gradientUnits="userSpaceOnUse">
<stop stop-color="#57C5C8"/>
<stop offset="1" stop-color="#DBF0EF"/>
</linearGradient>
<clipPath id="clip0_23_975">
<rect width="72" height="72" fill="white"/>
</clipPath>
</defs>
</svg>
