<svg width="310" height="74" viewBox="0 0 310 74" fill="none" xmlns="http://www.w3.org/2000/svg">
<path d="M16.1365 73.8693V15.7339H0V0H56.4779L52.1748 15.7339H38.7277V73.8693H16.1365Z" fill="url(#paint0_linear_258_1727)"/>
<path d="M50.2302 73.8693V41.8681C50.2302 36.9791 50.8129 32.9345 51.9784 29.7344C53.2334 26.4454 55.2505 23.3786 58.0295 20.5341H85.0582L85.1927 20.8007C80.8 24.4453 77.7071 28.1788 75.9142 32.0011C74.2109 35.8235 73.3592 40.6681 73.3592 46.535V73.8693H50.2302Z" fill="url(#paint1_linear_258_1727)"/>
<path d="M87.1593 15.4672V4.80017H110.423V15.4672H87.1593ZM87.1593 73.8693V20.5341H110.423V73.8693H87.1593Z" fill="url(#paint2_linear_258_1727)"/>
<path d="M119.067 73.8693V20.5341H168.283C170.704 23.2897 172.586 27.0676 173.931 31.8678C175.365 36.5791 176.083 41.6903 176.083 47.2017V73.8693H153.088V48.6684C153.088 42.6237 152.102 37.7347 150.13 34.0012C148.247 30.2677 145.558 27.2898 142.061 25.0675V73.8693H119.067Z" fill="url(#paint3_linear_258_1727)"/>
<path d="M184.336 15.4672V4.80017H207.599V15.4672H184.336ZM184.336 73.8693V20.5341H207.599V73.8693H184.336Z" fill="url(#paint4_linear_258_1727)"/>
<path d="M220.931 73.8693C219.676 71.9136 218.555 68.8913 217.569 64.8023C216.673 60.7132 216.224 56.6242 216.224 52.5352V7.20025H239.219V20.5341H247.287V36.5346H239.219V47.8683C239.219 53.7352 240.026 58.7132 241.639 62.8022C243.343 66.8023 245.36 70.4025 247.691 73.6026V73.8693H220.931Z" fill="url(#paint5_linear_258_1727)"/>
<path d="M278.668 97.0701L278.534 96.8034C280.775 93.8699 282.658 90.5809 284.182 86.9364C285.706 83.2918 286.602 78.9361 286.871 73.8693H260.918C258.498 71.0247 256.57 67.2468 255.136 62.5355C253.791 57.7354 253.119 52.6241 253.119 47.2017V20.5341H276.113V45.7349C276.113 52.224 277.189 57.2464 279.341 60.8021C281.492 64.3578 284.047 67.0246 287.005 68.8024V20.5341H310V75.736C310 79.825 309.507 83.914 308.521 88.0031C307.624 92.0921 306.549 95.1144 305.294 97.0701H278.668Z" fill="url(#paint6_linear_258_1727)"/>
<path d="M16.1583 101.871V86.7781H22.3553C23.9789 86.7781 25.3995 87.1015 26.6171 87.7483C27.8493 88.3808 28.806 89.2648 29.4873 90.4003C30.1687 91.5358 30.5093 92.8439 30.5093 94.3244C30.5093 95.8049 30.1687 97.1129 29.4873 98.2484C28.806 99.384 27.8493 100.275 26.6171 100.922C25.3995 101.554 23.9789 101.871 22.3553 101.871H16.1583ZM17.7673 100.491H22.2684C23.6165 100.491 24.7834 100.232 25.7691 99.7146C26.7694 99.1827 27.5449 98.4568 28.0957 97.5369C28.6466 96.6026 28.922 95.5318 28.922 94.3244C28.922 93.1026 28.6466 92.0317 28.0957 91.1118C27.5449 90.1919 26.7694 89.4732 25.7691 88.9557C24.7834 88.4239 23.6165 88.158 22.2684 88.158H17.7673V100.491Z" fill="url(#paint7_linear_258_1727)"/>
<path d="M48.604 93.5266H56.6493V94.8849H48.604V93.5266ZM48.778 100.491H57.9322V101.871H47.1689V86.7781H57.6061V88.158H48.778V100.491Z" fill="url(#paint8_linear_258_1727)"/>
<path d="M78.9574 102C77.8268 102 76.7396 101.82 75.6959 101.461C74.6666 101.087 73.8693 100.613 73.304 100.038L73.9346 98.809C74.4709 99.3265 75.1885 99.7649 76.0872 100.124C77.0005 100.469 77.9572 100.642 78.9574 100.642C79.9142 100.642 80.6897 100.527 81.284 100.297C81.8929 100.052 82.335 99.7289 82.6104 99.3265C82.9003 98.924 83.0453 98.4784 83.0453 97.9897C83.0453 97.4004 82.8714 96.926 82.5235 96.5667C82.19 96.2073 81.7479 95.927 81.1971 95.7258C80.6462 95.5102 80.0374 95.3234 79.3706 95.1652C78.7038 95.0071 78.0369 94.8418 77.3701 94.6693C76.7033 94.4825 76.0872 94.2381 75.5219 93.9363C74.971 93.6344 74.5217 93.2391 74.1738 92.7504C73.8404 92.2473 73.6737 91.5933 73.6737 90.7884C73.6737 90.041 73.8694 89.3582 74.2607 88.7401C74.6666 88.1077 75.2827 87.6046 76.109 87.2309C76.9352 86.8428 77.9935 86.6488 79.2836 86.6488C80.1389 86.6488 80.9869 86.7709 81.8276 87.0153C82.6684 87.2453 83.3932 87.5687 84.002 87.9855L83.4584 89.2576C82.8061 88.8264 82.1103 88.5102 81.371 88.3089C80.6462 88.1077 79.9432 88.0071 79.2618 88.0071C78.3486 88.0071 77.5948 88.1293 77.0005 88.3736C76.4061 88.618 75.964 88.9486 75.6741 89.3654C75.3987 89.7679 75.261 90.2278 75.261 90.7453C75.261 91.3346 75.4277 91.809 75.7611 92.1683C76.109 92.5276 76.5583 92.8079 77.1092 93.0092C77.6745 93.2104 78.2906 93.3901 78.9574 93.5482C79.6243 93.7063 80.2838 93.8788 80.9361 94.0656C81.603 94.2525 82.2118 94.4969 82.7626 94.7987C83.328 95.0862 83.7774 95.4743 84.1108 95.963C84.4587 96.4517 84.6326 97.0913 84.6326 97.8819C84.6326 98.615 84.4297 99.2977 84.0238 99.9302C83.6179 100.548 82.9946 101.051 82.1538 101.439C81.3275 101.813 80.2621 102 78.9574 102Z" fill="url(#paint9_linear_258_1727)"/>
<path d="M101.185 101.871V86.7781H102.794V101.871H101.185Z" fill="url(#paint10_linear_258_1727)"/>
<path d="M127.468 102C126.308 102 125.236 101.813 124.25 101.439C123.279 101.051 122.431 100.512 121.706 99.8224C120.996 99.1324 120.438 98.3203 120.032 97.386C119.64 96.4517 119.445 95.4312 119.445 94.3244C119.445 93.2176 119.64 92.197 120.032 91.2627C120.438 90.3284 121.003 89.5163 121.728 88.8264C122.452 88.1364 123.3 87.6046 124.272 87.2309C125.257 86.8428 126.33 86.6488 127.49 86.6488C128.65 86.6488 129.708 86.8284 130.664 87.1878C131.636 87.5471 132.462 88.0933 133.143 88.8264L132.143 89.8397C131.505 89.2073 130.802 88.7545 130.034 88.4814C129.266 88.2083 128.439 88.0717 127.555 88.0717C126.613 88.0717 125.743 88.2299 124.946 88.5461C124.163 88.8479 123.474 89.2863 122.88 89.8613C122.3 90.4219 121.844 91.0831 121.51 91.8449C121.191 92.5923 121.032 93.4188 121.032 94.3244C121.032 95.2155 121.191 96.042 121.51 96.8039C121.844 97.5657 122.3 98.234 122.88 98.809C123.474 99.3696 124.163 99.808 124.946 100.124C125.743 100.426 126.606 100.577 127.533 100.577C128.403 100.577 129.222 100.448 129.99 100.189C130.773 99.9302 131.491 99.4918 132.143 98.8737L133.056 100.081C132.331 100.714 131.483 101.195 130.512 101.526C129.541 101.842 128.526 102 127.468 102ZM131.512 99.887V94.3244H133.056V100.081L131.512 99.887Z" fill="url(#paint11_linear_258_1727)"/>
<path d="M150.657 101.871V86.7781H151.983L162.485 99.887H161.79V86.7781H163.377V101.871H162.051L151.57 88.7617H152.266V101.871H150.657Z" fill="url(#paint12_linear_258_1727)"/>
<path d="M200.128 101.871V86.7781H201.738V100.491H210.261V101.871H200.128Z" fill="url(#paint13_linear_258_1727)"/>
<path d="M223.544 101.871L230.502 86.7781H232.089L239.047 101.871H237.351L230.959 87.7052H231.611L225.218 101.871H223.544ZM226.284 97.8388L226.762 96.5451H235.612L236.09 97.8388H226.284Z" fill="url(#paint14_linear_258_1727)"/>
<path d="M254.612 101.871V86.7781H261.178C262.874 86.7781 264.186 87.1159 265.114 87.7915C266.056 88.467 266.527 89.4229 266.527 90.659C266.527 91.4784 266.332 92.1683 265.94 92.7289C265.563 93.2895 265.041 93.7135 264.375 94.001C263.722 94.2884 263.005 94.4322 262.222 94.4322L262.592 93.9147C263.563 93.9147 264.396 94.0656 265.092 94.3675C265.802 94.655 266.353 95.0934 266.745 95.6827C267.136 96.2576 267.332 96.9763 267.332 97.8388C267.332 99.118 266.853 100.11 265.897 100.814C264.954 101.518 263.527 101.871 261.613 101.871H254.612ZM256.221 100.555H261.591C262.925 100.555 263.947 100.333 264.657 99.887C265.368 99.4271 265.723 98.7012 265.723 97.7094C265.723 96.732 265.368 96.0205 264.657 95.5749C263.947 95.1149 262.925 94.8849 261.591 94.8849H256.047V93.5697H261.07C262.287 93.5697 263.229 93.3398 263.896 92.8798C264.578 92.4198 264.918 91.7371 264.918 90.8315C264.918 89.9116 264.578 89.2289 263.896 88.7833C263.229 88.3233 262.287 88.0933 261.07 88.0933H256.221V100.555Z" fill="url(#paint15_linear_258_1727)"/>
<defs>
<linearGradient id="paint0_linear_258_1727" x1="0" y1="0" x2="233.008" y2="194.517" gradientUnits="userSpaceOnUse">
<stop stop-color="#70CCCF"/>
<stop offset="0.5" stop-color="#8DB73E"/>
<stop offset="1" stop-color="#4C9D31"/>
</linearGradient>
<linearGradient id="paint1_linear_258_1727" x1="0" y1="0" x2="233.008" y2="194.517" gradientUnits="userSpaceOnUse">
<stop stop-color="#70CCCF"/>
<stop offset="0.5" stop-color="#8DB73E"/>
<stop offset="1" stop-color="#4C9D31"/>
</linearGradient>
<linearGradient id="paint2_linear_258_1727" x1="0" y1="0" x2="233.008" y2="194.517" gradientUnits="userSpaceOnUse">
<stop stop-color="#70CCCF"/>
<stop offset="0.5" stop-color="#8DB73E"/>
<stop offset="1" stop-color="#4C9D31"/>
</linearGradient>
<linearGradient id="paint3_linear_258_1727" x1="0" y1="0" x2="233.008" y2="194.517" gradientUnits="userSpaceOnUse">
<stop stop-color="#70CCCF"/>
<stop offset="0.5" stop-color="#8DB73E"/>
<stop offset="1" stop-color="#4C9D31"/>
</linearGradient>
<linearGradient id="paint4_linear_258_1727" x1="0" y1="0" x2="233.008" y2="194.517" gradientUnits="userSpaceOnUse">
<stop stop-color="#70CCCF"/>
<stop offset="0.5" stop-color="#8DB73E"/>
<stop offset="1" stop-color="#4C9D31"/>
</linearGradient>
<linearGradient id="paint5_linear_258_1727" x1="0" y1="0" x2="233.008" y2="194.517" gradientUnits="userSpaceOnUse">
<stop stop-color="#70CCCF"/>
<stop offset="0.5" stop-color="#8DB73E"/>
<stop offset="1" stop-color="#4C9D31"/>
</linearGradient>
<linearGradient id="paint6_linear_258_1727" x1="0" y1="0" x2="233.008" y2="194.517" gradientUnits="userSpaceOnUse">
<stop stop-color="#70CCCF"/>
<stop offset="0.5" stop-color="#8DB73E"/>
<stop offset="1" stop-color="#4C9D31"/>
</linearGradient>
<linearGradient id="paint7_linear_258_1727" x1="0" y1="0" x2="233.008" y2="194.517" gradientUnits="userSpaceOnUse">
<stop stop-color="#70CCCF"/>
<stop offset="0.5" stop-color="#8DB73E"/>
<stop offset="1" stop-color="#4C9D31"/>
</linearGradient>
<linearGradient id="paint8_linear_258_1727" x1="0" y1="0" x2="233.008" y2="194.517" gradientUnits="userSpaceOnUse">
<stop stop-color="#70CCCF"/>
<stop offset="0.5" stop-color="#8DB73E"/>
<stop offset="1" stop-color="#4C9D31"/>
</linearGradient>
<linearGradient id="paint9_linear_258_1727" x1="0" y1="0" x2="233.008" y2="194.517" gradientUnits="userSpaceOnUse">
<stop stop-color="#70CCCF"/>
<stop offset="0.5" stop-color="#8DB73E"/>
<stop offset="1" stop-color="#4C9D31"/>
</linearGradient>
<linearGradient id="paint10_linear_258_1727" x1="0" y1="0" x2="233.008" y2="194.517" gradientUnits="userSpaceOnUse">
<stop stop-color="#70CCCF"/>
<stop offset="0.5" stop-color="#8DB73E"/>
<stop offset="1" stop-color="#4C9D31"/>
</linearGradient>
<linearGradient id="paint11_linear_258_1727" x1="0" y1="0" x2="233.008" y2="194.517" gradientUnits="userSpaceOnUse">
<stop stop-color="#70CCCF"/>
<stop offset="0.5" stop-color="#8DB73E"/>
<stop offset="1" stop-color="#4C9D31"/>
</linearGradient>
<linearGradient id="paint12_linear_258_1727" x1="0" y1="0" x2="233.008" y2="194.517" gradientUnits="userSpaceOnUse">
<stop stop-color="#70CCCF"/>
<stop offset="0.5" stop-color="#8DB73E"/>
<stop offset="1" stop-color="#4C9D31"/>
</linearGradient>
<linearGradient id="paint13_linear_258_1727" x1="0" y1="0" x2="233.008" y2="194.517" gradientUnits="userSpaceOnUse">
<stop stop-color="#70CCCF"/>
<stop offset="0.5" stop-color="#8DB73E"/>
<stop offset="1" stop-color="#4C9D31"/>
</linearGradient>
<linearGradient id="paint14_linear_258_1727" x1="0" y1="0" x2="233.008" y2="194.517" gradientUnits="userSpaceOnUse">
<stop stop-color="#70CCCF"/>
<stop offset="0.5" stop-color="#8DB73E"/>
<stop offset="1" stop-color="#4C9D31"/>
</linearGradient>
<linearGradient id="paint15_linear_258_1727" x1="0" y1="0" x2="233.008" y2="194.517" gradientUnits="userSpaceOnUse">
<stop stop-color="#70CCCF"/>
<stop offset="0.5" stop-color="#8DB73E"/>
<stop offset="1" stop-color="#4C9D31"/>
</linearGradient>
</defs>
</svg>
