<svg width="250" height="72" viewBox="0 0 250 72" fill="none" xmlns="http://www.w3.org/2000/svg">
<g clip-path="url(#clip0_37_22)">
<path d="M42.589 1.30859L37.8418 2.93419V35.1406C37.8418 38.6318 39.6594 41.8814 42.589 43.6286C42.589 43.6286 53.8898 49.7486 53.8898 45.8558V13.7038C53.8898 10.2126 52.0722 6.96139 49.1426 5.21579L42.5874 1.30859H42.589Z" fill="url(#paint0_linear_37_22)"/>
<path d="M49.1441 5.21591L42.5889 1.30871C39.6593 -0.436888 36.0241 -0.436888 33.0945 1.30871L24.1969 6.61271C21.2673 8.35991 19.4497 11.6079 19.4497 15.1007V28.5727L49.1425 10.8735C51.4177 9.32151 53.8897 10.3199 53.8897 13.7023C53.8897 10.2111 52.0721 6.95991 49.1425 5.21431L49.1441 5.21591Z" fill="url(#paint1_linear_37_22)"/>
<path d="M33.0945 1.31031L24.1969 6.61431C21.2673 8.36151 19.4497 11.6095 19.4497 15.1023V31.0335C19.4497 31.0335 28.4497 25.6687 31.7153 23.7215C34.9665 21.7839 35.4929 16.9663 35.4993 16.9215C35.4993 12.5423 35.4993 6.37431 35.4993 4.93111C35.4993 1.53751 38.7569 -0.358488 42.5905 1.30871C39.6609 -0.436888 36.0257 -0.436888 33.0961 1.30871L33.0945 1.31031Z" fill="url(#paint2_linear_37_22)"/>
<path d="M0.000135156 56.1006L3.73774 59.5326L30.7521 43.4302C33.6817 41.683 35.4993 38.4334 35.4993 34.9422V16.9214C35.4993 16.9214 34.9825 21.7774 31.7153 23.7246C28.4497 25.6718 19.4497 31.035 19.4497 31.035L4.74574 39.7998C1.81614 41.5454 -0.00146484 44.795 -0.00146484 48.2878V56.1022L0.000135156 56.1006Z" fill="url(#paint3_linear_37_22)"/>
<path d="M0 48.2849V56.0993C0 59.5921 1.8176 62.8401 4.7472 64.5873L13.6464 69.8913C16.576 71.6369 20.2096 71.6369 23.1392 69.8913L34.44 63.1553L4.7472 45.4561C2.3088 44.1985 1.9104 41.4897 4.7472 39.7969C1.8176 41.5425 0 44.7921 0 48.2849Z" fill="url(#paint4_linear_37_22)"/>
<path d="M4.7472 64.5871L13.6464 69.8911C16.576 71.6367 20.2096 71.6367 23.1392 69.8911L36.5024 61.9263C36.5024 61.9263 27.5024 56.5615 24.2368 54.6159C20.9856 52.6783 16.6816 54.6159 16.6416 54.6335C12.968 56.8239 7.7952 59.9071 6.584 60.6303C3.7376 62.3263 0.5184 60.3631 0 56.1007C0 59.5935 1.8176 62.8415 4.7472 64.5887V64.5871Z" fill="url(#paint5_linear_37_22)"/>
<path d="M67.2545 66.7837L68.2641 61.7261L41.2497 45.6237C38.3201 43.8781 34.6849 43.8781 31.7569 45.6237L16.6401 54.6333C16.6401 54.6333 20.9713 52.6669 24.2369 54.6141C27.5041 56.5613 36.5025 61.9245 36.5025 61.9245L51.2065 70.6893C54.1361 72.4349 57.7713 72.4349 60.6993 70.6893L67.2545 66.7821V66.7837Z" fill="url(#paint6_linear_37_22)"/>
<path d="M60.6993 70.6912L67.2545 66.784C70.1841 65.0368 72.0001 61.7872 72.0001 58.296V47.6864C72.0001 44.1952 70.1825 40.944 67.2529 39.1984L55.9521 32.4624V67.8608C56.1153 70.6704 54.0433 72.3808 51.2065 70.6896C54.1361 72.4352 57.7713 72.4352 60.6993 70.6896V70.6912Z" fill="url(#paint7_linear_37_22)"/>
<path d="M72 58.2943V47.6847C72 44.1935 70.1824 40.9423 67.2528 39.1967L53.8896 31.2319C53.8896 31.2319 53.8896 41.9615 53.8896 45.8543C53.8896 49.7471 57.6673 52.6095 57.7025 52.6367C61.3761 54.8255 66.5489 57.9103 67.76 58.6303C70.6065 60.3279 70.568 64.1871 67.2528 66.7823C70.1824 65.0351 71.9984 61.7855 71.9984 58.2943H72Z" fill="url(#paint8_linear_37_22)"/>
<path d="M42.5889 43.627L57.7041 52.6381C57.7041 52.6381 53.8897 49.7486 53.8897 45.8542L42.5889 43.627Z" fill="url(#paint9_linear_37_22)"/>
</g>
<path d="M86.9091 46.4546V14.7455H78.1819V6.16368H108.727L106.4 14.7455H99.1273V46.4546H86.9091ZM105.348 46.4546V29C105.348 26.3334 105.663 24.1273 106.294 22.3819C106.973 20.5879 108.063 18.9152 109.567 17.3637H124.185L124.257 17.5091C121.882 19.497 120.209 21.5334 119.239 23.6182C118.318 25.7031 117.857 28.3455 117.857 31.5455V46.4546H105.348ZM125.321 14.6V8.78186H137.903V14.6H125.321ZM125.321 46.4546V17.3637H137.903V46.4546H125.321ZM142.578 46.4546V17.3637H169.196C170.505 18.8667 171.523 20.9273 172.251 23.5455C173.026 26.1152 173.414 28.9031 173.414 31.9091V46.4546H160.978V32.7091C160.978 29.4122 160.445 26.7455 159.378 24.7091C158.36 22.6728 156.905 21.0485 155.014 19.8364V46.4546H142.578ZM177.878 14.6V8.78186H190.46V14.6H177.878ZM177.878 46.4546V17.3637H190.46V46.4546H177.878ZM197.67 46.4546C196.991 45.3879 196.385 43.7394 195.852 41.5091C195.367 39.2788 195.124 37.0485 195.124 34.8182V10.091H207.561V17.3637H211.924V26.091H207.561V32.2728C207.561 35.4728 207.997 38.1879 208.87 40.4182C209.791 42.6 210.882 44.5637 212.143 46.3091V46.4546H197.67ZM228.897 59.1091L228.824 58.9637C230.036 57.3637 231.054 55.5697 231.878 53.5819C232.703 51.594 233.188 49.2182 233.333 46.4546H219.297C217.988 44.9031 216.945 42.8425 216.169 40.2728C215.442 37.6546 215.078 34.8667 215.078 31.9091V17.3637H227.515V31.1091C227.515 34.6485 228.097 37.3879 229.26 39.3273C230.424 41.2667 231.806 42.7213 233.406 43.691V17.3637H245.842V47.4728C245.842 49.7031 245.575 51.9334 245.042 54.1637C244.557 56.394 243.975 58.0425 243.297 59.1091H228.897Z" fill="#57C5C8"/>
<path d="M87.0681 61.7271V53.4951H90.5373C91.4153 53.4951 92.1876 53.6675 92.854 54.0125C93.5282 54.3575 94.0496 54.8396 94.4181 55.459C94.7944 56.0783 94.9825 56.7957 94.9825 57.6111C94.9825 58.4264 94.7944 59.1438 94.4181 59.7631C94.0496 60.3825 93.5282 60.8647 92.854 61.2096C92.1876 61.5546 91.4153 61.7271 90.5373 61.7271H87.0681ZM88.2441 60.7039H90.4667C91.1488 60.7039 91.7368 60.5746 92.2307 60.3159C92.7325 60.0571 93.1205 59.6965 93.3949 59.2339C93.6693 58.7635 93.8065 58.2226 93.8065 57.6111C93.8065 56.9917 93.6693 56.4507 93.3949 55.9882C93.1205 55.5256 92.7325 55.165 92.2307 54.9063C91.7368 54.6475 91.1488 54.5182 90.4667 54.5182H88.2441V60.7039ZM104.91 57.0466H109.144V58.0462H104.91V57.0466ZM105.016 60.7039H109.814V61.7271H103.84V53.4951H109.649V54.5182H105.016V60.7039ZM121.173 61.8211C120.546 61.8211 119.946 61.7271 119.374 61.5389C118.802 61.3429 118.351 61.092 118.021 60.7863L118.457 59.869C118.77 60.1434 119.17 60.3707 119.656 60.5511C120.142 60.7314 120.648 60.8215 121.173 60.8215C121.651 60.8215 122.039 60.7667 122.337 60.6569C122.635 60.5471 122.855 60.3982 122.996 60.21C123.137 60.014 123.208 59.7945 123.208 59.5515C123.208 59.2692 123.114 59.0419 122.925 58.8694C122.745 58.6969 122.506 58.5597 122.208 58.4578C121.918 58.348 121.597 58.2539 121.244 58.1755C120.891 58.0971 120.534 58.007 120.174 57.9051C119.821 57.7953 119.495 57.6581 119.197 57.4935C118.907 57.3288 118.672 57.1093 118.492 56.8349C118.312 56.5527 118.221 56.192 118.221 55.753C118.221 55.3296 118.331 54.9415 118.551 54.5887C118.778 54.2281 119.123 53.9419 119.586 53.7303C120.056 53.5107 120.652 53.401 121.373 53.401C121.851 53.401 122.326 53.4637 122.796 53.5891C123.266 53.7146 123.674 53.8949 124.019 54.1301L123.631 55.0709C123.278 54.8357 122.906 54.6671 122.514 54.5652C122.122 54.4555 121.742 54.4006 121.373 54.4006C120.911 54.4006 120.53 54.4594 120.232 54.577C119.934 54.6946 119.715 54.8514 119.574 55.0474C119.441 55.2434 119.374 55.4629 119.374 55.7059C119.374 55.996 119.464 56.2273 119.644 56.3998C119.833 56.5723 120.072 56.7095 120.362 56.8114C120.66 56.9133 120.985 57.0074 121.338 57.0936C121.691 57.172 122.043 57.2622 122.396 57.3641C122.757 57.466 123.082 57.5993 123.372 57.7639C123.67 57.9286 123.909 58.1481 124.09 58.4225C124.27 58.6969 124.36 59.0497 124.36 59.4809C124.36 59.8964 124.246 60.2845 124.019 60.6451C123.792 60.9979 123.439 61.2841 122.961 61.5036C122.49 61.7153 121.894 61.8211 121.173 61.8211ZM133.134 61.7271V53.4951H134.31V61.7271H133.134ZM147.547 61.8211C146.912 61.8211 146.328 61.7192 145.795 61.5154C145.262 61.3037 144.799 61.0097 144.407 60.6334C144.015 60.2492 143.709 59.8023 143.49 59.2927C143.27 58.7831 143.16 58.2226 143.16 57.6111C143.16 56.9995 143.27 56.439 143.49 55.9294C143.709 55.4198 144.015 54.9768 144.407 54.6005C144.807 54.2163 145.273 53.9223 145.806 53.7185C146.34 53.5068 146.928 53.401 147.57 53.401C148.221 53.401 148.817 53.5068 149.358 53.7185C149.899 53.9302 150.358 54.2477 150.734 54.6711L150.005 55.4002C149.668 55.0709 149.299 54.8318 148.899 54.6828C148.507 54.526 148.08 54.4476 147.617 54.4476C147.147 54.4476 146.708 54.526 146.3 54.6828C145.9 54.8396 145.552 55.0591 145.254 55.3414C144.964 55.6236 144.736 55.9607 144.572 56.3527C144.415 56.7369 144.336 57.1563 144.336 57.6111C144.336 58.0579 144.415 58.4774 144.572 58.8694C144.736 59.2535 144.964 59.5907 145.254 59.8807C145.552 60.163 145.9 60.3825 146.3 60.5393C146.7 60.6961 147.135 60.7745 147.606 60.7745C148.045 60.7745 148.464 60.7079 148.864 60.5746C149.272 60.4335 149.648 60.2022 149.993 59.8807L150.663 60.7745C150.256 61.1195 149.777 61.3821 149.229 61.5624C148.688 61.7349 148.127 61.8211 147.547 61.8211ZM149.534 60.6216V57.564H150.663V60.7745L149.534 60.6216ZM159.971 61.7271V53.4951H160.935L166.38 60.2571H165.874V53.4951H167.05V61.7271H166.086L160.641 54.9651H161.147V61.7271H159.971ZM186.785 61.7271V53.4951H187.961V60.7039H192.418V61.7271H186.785ZM199.577 61.7271L203.304 53.4951H204.469L208.208 61.7271H206.974L203.645 54.1536H204.116L200.788 61.7271H199.577ZM201.164 59.6691L201.482 58.7283H206.115L206.456 59.6691H201.164ZM216.492 61.7271V53.4951H220.185C221.134 53.4951 221.863 53.6871 222.372 54.0713C222.882 54.4476 223.137 54.9651 223.137 55.6236C223.137 56.0705 223.035 56.4468 222.831 56.7526C222.635 57.0583 222.368 57.2935 222.031 57.4582C221.694 57.6228 221.33 57.7051 220.938 57.7051L221.149 57.3523C221.62 57.3523 222.035 57.4347 222.396 57.5993C222.757 57.7639 223.043 58.007 223.254 58.3284C223.466 58.642 223.572 59.034 223.572 59.5044C223.572 60.21 223.305 60.7588 222.772 61.1508C222.247 61.535 221.463 61.7271 220.42 61.7271H216.492ZM217.668 60.7745H220.373C221.024 60.7745 221.522 60.6647 221.867 60.4452C222.212 60.2257 222.384 59.8807 222.384 59.4103C222.384 58.9321 222.212 58.5832 221.867 58.3637C221.522 58.1442 221.024 58.0344 220.373 58.0344H217.563V57.0819H220.079C220.675 57.0819 221.138 56.9721 221.467 56.7526C221.796 56.5331 221.961 56.2038 221.961 55.7647C221.961 55.3257 221.796 54.9964 221.467 54.7769C221.138 54.5574 220.675 54.4476 220.079 54.4476H217.668V60.7745Z" fill="#0FB14B"/>
<defs>
<linearGradient id="paint0_linear_37_22" x1="45.8658" y1="43.2798" x2="45.8658" y2="12.2942" gradientUnits="userSpaceOnUse">
<stop stop-color="#57C5C8"/>
<stop offset="1" stop-color="#DBF0EF"/>
</linearGradient>
<linearGradient id="paint1_linear_37_22" x1="46.6641" y1="4.49911" x2="36.0097" y2="12.3727" gradientUnits="userSpaceOnUse">
<stop stop-color="#42C2CC"/>
<stop offset="1" stop-color="#437271"/>
</linearGradient>
<linearGradient id="paint2_linear_37_22" x1="24.5601" y1="5.88791" x2="34.2705" y2="21.3455" gradientUnits="userSpaceOnUse">
<stop stop-color="#57C5C8"/>
<stop offset="1" stop-color="#DBF0EF"/>
</linearGradient>
<linearGradient id="paint3_linear_37_22" x1="33.5686" y1="30.1803" x2="7.46175" y2="45.2531" gradientUnits="userSpaceOnUse">
<stop stop-color="#55C2B5"/>
<stop offset="1" stop-color="#0FB14B"/>
</linearGradient>
<linearGradient id="paint4_linear_37_22" x1="11.1248" y1="43.8561" x2="16.5552" y2="58.7025" gradientUnits="userSpaceOnUse">
<stop stop-color="#59BB64"/>
<stop offset="1" stop-color="#068643"/>
</linearGradient>
<linearGradient id="paint5_linear_37_22" x1="12.5643" y1="69.8001" x2="21.0887" y2="53.6752" gradientUnits="userSpaceOnUse">
<stop stop-color="#55C2B5"/>
<stop offset="1" stop-color="#0FB14B"/>
</linearGradient>
<linearGradient id="paint6_linear_37_22" x1="28.8009" y1="50.0356" x2="54.6874" y2="64.9812" gradientUnits="userSpaceOnUse">
<stop stop-color="#E4E75D"/>
<stop offset="1" stop-color="#61B446"/>
</linearGradient>
<linearGradient id="paint7_linear_37_22" x1="49.7809" y1="67.9264" x2="58.8049" y2="54.5712" gradientUnits="userSpaceOnUse">
<stop stop-color="#DEE21E"/>
<stop offset="1" stop-color="#62AA45"/>
</linearGradient>
<linearGradient id="paint8_linear_37_22" x1="72.4431" y1="48.5509" x2="54.6452" y2="49.2144" gradientUnits="userSpaceOnUse">
<stop stop-color="#E4E75D"/>
<stop offset="1" stop-color="#61B446"/>
</linearGradient>
<linearGradient id="paint9_linear_37_22" x1="50.1473" y1="43.2798" x2="50.1473" y2="12.2942" gradientUnits="userSpaceOnUse">
<stop stop-color="#57C5C8"/>
<stop offset="1" stop-color="#DBF0EF"/>
</linearGradient>
<clipPath id="clip0_37_22">
<rect width="72" height="72" fill="white"/>
</clipPath>
</defs>
</svg>
