<svg width="72" height="72" viewBox="0 0 72 72" fill="none" xmlns="http://www.w3.org/2000/svg">
<g clip-path="url(#clip0_37_23)">
<path d="M42.589 1.30859L37.8418 2.93419V35.1406C37.8418 38.6318 39.6594 41.8814 42.589 43.6286C42.589 43.6286 53.8898 49.7486 53.8898 45.8558V13.7038C53.8898 10.2126 52.0722 6.96139 49.1426 5.21579L42.5874 1.30859H42.589Z" fill="url(#paint0_linear_37_23)"/>
<path d="M49.1441 5.21591L42.5889 1.30871C39.6593 -0.436888 36.0241 -0.436888 33.0945 1.30871L24.1969 6.61271C21.2673 8.35991 19.4497 11.6079 19.4497 15.1007V28.5727L49.1425 10.8735C51.4177 9.32151 53.8897 10.3199 53.8897 13.7023C53.8897 10.2111 52.0721 6.95991 49.1425 5.21431L49.1441 5.21591Z" fill="url(#paint1_linear_37_23)"/>
<path d="M33.0945 1.31031L24.1969 6.61431C21.2673 8.36151 19.4497 11.6095 19.4497 15.1023V31.0335C19.4497 31.0335 28.4497 25.6687 31.7153 23.7215C34.9665 21.7839 35.4929 16.9663 35.4993 16.9215C35.4993 12.5423 35.4993 6.37431 35.4993 4.93111C35.4993 1.53751 38.7569 -0.358488 42.5905 1.30871C39.6609 -0.436888 36.0257 -0.436888 33.0961 1.30871L33.0945 1.31031Z" fill="url(#paint2_linear_37_23)"/>
<path d="M0.000135156 56.1006L3.73774 59.5326L30.7521 43.4302C33.6817 41.683 35.4993 38.4334 35.4993 34.9422V16.9214C35.4993 16.9214 34.9825 21.7774 31.7153 23.7246C28.4497 25.6718 19.4497 31.035 19.4497 31.035L4.74574 39.7998C1.81614 41.5454 -0.00146484 44.795 -0.00146484 48.2878V56.1022L0.000135156 56.1006Z" fill="url(#paint3_linear_37_23)"/>
<path d="M0 48.2849V56.0993C0 59.5921 1.8176 62.8401 4.7472 64.5873L13.6464 69.8913C16.576 71.6369 20.2096 71.6369 23.1392 69.8913L34.44 63.1553L4.7472 45.4561C2.3088 44.1985 1.9104 41.4897 4.7472 39.7969C1.8176 41.5425 0 44.7921 0 48.2849Z" fill="url(#paint4_linear_37_23)"/>
<path d="M4.7472 64.5871L13.6464 69.8911C16.576 71.6367 20.2096 71.6367 23.1392 69.8911L36.5024 61.9263C36.5024 61.9263 27.5024 56.5615 24.2368 54.6159C20.9856 52.6783 16.6816 54.6159 16.6416 54.6335C12.968 56.8239 7.7952 59.9071 6.584 60.6303C3.7376 62.3263 0.5184 60.3631 0 56.1007C0 59.5935 1.8176 62.8415 4.7472 64.5887V64.5871Z" fill="url(#paint5_linear_37_23)"/>
<path d="M67.2545 66.7837L68.2641 61.7261L41.2497 45.6237C38.3201 43.8781 34.6849 43.8781 31.7569 45.6237L16.6401 54.6333C16.6401 54.6333 20.9713 52.6669 24.2369 54.6141C27.5041 56.5613 36.5025 61.9245 36.5025 61.9245L51.2065 70.6893C54.1361 72.4349 57.7713 72.4349 60.6993 70.6893L67.2545 66.7821V66.7837Z" fill="url(#paint6_linear_37_23)"/>
<path d="M60.6993 70.6912L67.2545 66.784C70.1841 65.0368 72.0001 61.7872 72.0001 58.296V47.6864C72.0001 44.1952 70.1825 40.944 67.2529 39.1984L55.9521 32.4624V67.8608C56.1153 70.6704 54.0433 72.3808 51.2065 70.6896C54.1361 72.4352 57.7713 72.4352 60.6993 70.6896V70.6912Z" fill="url(#paint7_linear_37_23)"/>
<path d="M72 58.2943V47.6847C72 44.1935 70.1824 40.9423 67.2528 39.1967L53.8896 31.2319C53.8896 31.2319 53.8896 41.9615 53.8896 45.8543C53.8896 49.7471 57.6673 52.6095 57.7025 52.6367C61.3761 54.8255 66.5489 57.9103 67.76 58.6303C70.6065 60.3279 70.568 64.1871 67.2528 66.7823C70.1824 65.0351 71.9984 61.7855 71.9984 58.2943H72Z" fill="url(#paint8_linear_37_23)"/>
<path d="M42.5889 43.627L57.7041 52.6381C57.7041 52.6381 53.8897 49.7486 53.8897 45.8542L42.5889 43.627Z" fill="url(#paint9_linear_37_23)"/>
</g>
<defs>
<linearGradient id="paint0_linear_37_23" x1="45.8658" y1="43.2798" x2="45.8658" y2="12.2942" gradientUnits="userSpaceOnUse">
<stop stop-color="#57C5C8"/>
<stop offset="1" stop-color="#DBF0EF"/>
</linearGradient>
<linearGradient id="paint1_linear_37_23" x1="46.6641" y1="4.49911" x2="36.0097" y2="12.3727" gradientUnits="userSpaceOnUse">
<stop stop-color="#42C2CC"/>
<stop offset="1" stop-color="#437271"/>
</linearGradient>
<linearGradient id="paint2_linear_37_23" x1="24.5601" y1="5.88791" x2="34.2705" y2="21.3455" gradientUnits="userSpaceOnUse">
<stop stop-color="#57C5C8"/>
<stop offset="1" stop-color="#DBF0EF"/>
</linearGradient>
<linearGradient id="paint3_linear_37_23" x1="33.5686" y1="30.1803" x2="7.46175" y2="45.2531" gradientUnits="userSpaceOnUse">
<stop stop-color="#55C2B5"/>
<stop offset="1" stop-color="#0FB14B"/>
</linearGradient>
<linearGradient id="paint4_linear_37_23" x1="11.1248" y1="43.8561" x2="16.5552" y2="58.7025" gradientUnits="userSpaceOnUse">
<stop stop-color="#59BB64"/>
<stop offset="1" stop-color="#068643"/>
</linearGradient>
<linearGradient id="paint5_linear_37_23" x1="12.5643" y1="69.8001" x2="21.0887" y2="53.6752" gradientUnits="userSpaceOnUse">
<stop stop-color="#55C2B5"/>
<stop offset="1" stop-color="#0FB14B"/>
</linearGradient>
<linearGradient id="paint6_linear_37_23" x1="28.8009" y1="50.0356" x2="54.6874" y2="64.9812" gradientUnits="userSpaceOnUse">
<stop stop-color="#E4E75D"/>
<stop offset="1" stop-color="#61B446"/>
</linearGradient>
<linearGradient id="paint7_linear_37_23" x1="49.7809" y1="67.9264" x2="58.8049" y2="54.5712" gradientUnits="userSpaceOnUse">
<stop stop-color="#DEE21E"/>
<stop offset="1" stop-color="#62AA45"/>
</linearGradient>
<linearGradient id="paint8_linear_37_23" x1="72.4431" y1="48.5509" x2="54.6452" y2="49.2144" gradientUnits="userSpaceOnUse">
<stop stop-color="#E4E75D"/>
<stop offset="1" stop-color="#61B446"/>
</linearGradient>
<linearGradient id="paint9_linear_37_23" x1="50.1473" y1="43.2798" x2="50.1473" y2="12.2942" gradientUnits="userSpaceOnUse">
<stop stop-color="#57C5C8"/>
<stop offset="1" stop-color="#DBF0EF"/>
</linearGradient>
<clipPath id="clip0_37_23">
<rect width="72" height="72" fill="white"/>
</clipPath>
</defs>
</svg>
