<svg width="250" height="72" viewBox="0 0 250 72" fill="none" xmlns="http://www.w3.org/2000/svg">
<g clip-path="url(#clip0_37_6)">
<path d="M42.589 1.30859L37.8418 2.93419V35.1406C37.8418 38.6318 39.6594 41.8814 42.589 43.6286C42.589 43.6286 53.8898 49.7486 53.8898 45.8558V13.7038C53.8898 10.2126 52.0722 6.96139 49.1426 5.21579L42.5874 1.30859H42.589Z" fill="white"/>
<path d="M49.1441 5.21591L42.5889 1.30871C39.6593 -0.436888 36.0241 -0.436888 33.0945 1.30871L24.1969 6.61271C21.2673 8.35991 19.4497 11.6079 19.4497 15.1007V28.5727L49.1425 10.8735C51.4177 9.32151 53.8897 10.3199 53.8897 13.7023C53.8897 10.2111 52.0721 6.95991 49.1425 5.21431L49.1441 5.21591Z" fill="white"/>
<path d="M33.0945 1.31031L24.1969 6.61431C21.2673 8.36151 19.4497 11.6095 19.4497 15.1023V31.0335C19.4497 31.0335 28.4497 25.6687 31.7153 23.7215C34.9665 21.7839 35.4929 16.9663 35.4993 16.9215C35.4993 12.5423 35.4993 6.37431 35.4993 4.93111C35.4993 1.53751 38.7569 -0.358488 42.5905 1.30871C39.6609 -0.436888 36.0257 -0.436888 33.0961 1.30871L33.0945 1.31031Z" fill="#D2D2D2"/>
<path d="M0.000135156 56.1006L3.73774 59.5326L30.7521 43.4302C33.6817 41.683 35.4993 38.4334 35.4993 34.9422V16.9214C35.4993 16.9214 34.9825 21.7774 31.7153 23.7246C28.4497 25.6718 19.4497 31.035 19.4497 31.035L4.74574 39.7998C1.81614 41.5454 -0.00146484 44.795 -0.00146484 48.2878V56.1022L0.000135156 56.1006Z" fill="white"/>
<path d="M0 48.2849V56.0993C0 59.5921 1.8176 62.8401 4.7472 64.5873L13.6464 69.8913C16.576 71.6369 20.2096 71.6369 23.1392 69.8913L34.44 63.1553L4.7472 45.4561C2.3088 44.1985 1.9104 41.4897 4.7472 39.7969C1.8176 41.5425 0 44.7921 0 48.2849Z" fill="white"/>
<path d="M4.7472 64.5871L13.6464 69.8911C16.576 71.6367 20.2096 71.6367 23.1392 69.8911L36.5024 61.9263C36.5024 61.9263 27.5024 56.5615 24.2368 54.6159C20.9856 52.6783 16.6816 54.6159 16.6416 54.6335C12.968 56.8239 7.7952 59.9071 6.584 60.6303C3.7376 62.3263 0.5184 60.3631 0 56.1007C0 59.5935 1.8176 62.8415 4.7472 64.5887V64.5871Z" fill="#D2D2D2"/>
<path d="M67.2545 66.7841L68.2641 61.7265L41.2497 45.6241C38.3201 43.8785 34.6849 43.8785 31.7569 45.6241L16.6401 54.6337C16.6401 54.6337 20.9713 52.6673 24.2369 54.6145C27.5041 56.5617 36.5025 61.9249 36.5025 61.9249L51.2065 70.6897C54.1361 72.4353 57.7713 72.4353 60.6993 70.6897L67.2545 66.7825V66.7841Z" fill="white"/>
<path d="M60.6993 70.6912L67.2545 66.784C70.1841 65.0368 72.0001 61.7872 72.0001 58.296V47.6864C72.0001 44.1952 70.1825 40.944 67.2529 39.1984L55.9521 32.4624V67.8608C56.1153 70.6704 54.0433 72.3808 51.2065 70.6896C54.1361 72.4352 57.7713 72.4352 60.6993 70.6896V70.6912Z" fill="white"/>
<path d="M72 58.2943V47.6847C72 44.1935 70.1824 40.9423 67.2528 39.1967L53.8896 31.2319C53.8896 31.2319 53.8896 41.9615 53.8896 45.8543C53.8896 49.7471 57.6673 52.6095 57.7025 52.6367C61.3761 54.8255 66.5489 57.9103 67.76 58.6303C70.6065 60.3279 70.568 64.1871 67.2528 66.7823C70.1824 65.0351 71.9984 61.7855 71.9984 58.2943H72Z" fill="#D2D2D2"/>
<path d="M42.5889 43.627L57.7041 52.6381C57.7041 52.6381 53.8897 49.7486 53.8897 45.8542L42.5889 43.627Z" fill="white"/>
</g>
<path d="M86.9091 46.4546V14.7455H78.1819V6.16368H108.727L106.4 14.7455H99.1273V46.4546H86.9091ZM105.348 46.4546V29C105.348 26.3334 105.663 24.1273 106.294 22.3819C106.973 20.5879 108.063 18.9152 109.567 17.3637H124.185L124.257 17.5091C121.882 19.497 120.209 21.5334 119.239 23.6182C118.318 25.7031 117.857 28.3455 117.857 31.5455V46.4546H105.348ZM125.321 14.6V8.78186H137.903V14.6H125.321ZM125.321 46.4546V17.3637H137.903V46.4546H125.321ZM142.578 46.4546V17.3637H169.196C170.505 18.8667 171.523 20.9273 172.251 23.5455C173.026 26.1152 173.414 28.9031 173.414 31.9091V46.4546H160.978V32.7091C160.978 29.4122 160.445 26.7455 159.378 24.7091C158.36 22.6728 156.905 21.0485 155.014 19.8364V46.4546H142.578ZM177.878 14.6V8.78186H190.46V14.6H177.878ZM177.878 46.4546V17.3637H190.46V46.4546H177.878ZM197.67 46.4546C196.991 45.3879 196.385 43.7394 195.852 41.5091C195.367 39.2788 195.124 37.0485 195.124 34.8182V10.091H207.561V17.3637H211.924V26.091H207.561V32.2728C207.561 35.4728 207.997 38.1879 208.87 40.4182C209.791 42.6 210.882 44.5637 212.143 46.3091V46.4546H197.67ZM228.897 59.1091L228.824 58.9637C230.036 57.3637 231.054 55.5697 231.878 53.5819C232.703 51.594 233.188 49.2182 233.333 46.4546H219.297C217.988 44.9031 216.945 42.8425 216.169 40.2728C215.442 37.6546 215.078 34.8667 215.078 31.9091V17.3637H227.515V31.1091C227.515 34.6485 228.097 37.3879 229.26 39.3273C230.424 41.2667 231.806 42.7213 233.406 43.691V17.3637H245.842V47.4728C245.842 49.7031 245.575 51.9334 245.042 54.1637C244.557 56.394 243.975 58.0425 243.297 59.1091H228.897Z" fill="white"/>
<path d="M86.9208 61.7275V53.4955H90.2724C91.1505 53.4955 91.9188 53.6719 92.5774 54.0247C93.2438 54.3697 93.7612 54.8519 94.1297 55.4712C94.4982 56.0906 94.6824 56.804 94.6824 57.6115C94.6824 58.4191 94.4982 59.1325 94.1297 59.7519C93.7612 60.3712 93.2438 60.8573 92.5774 61.2101C91.9188 61.5551 91.1505 61.7275 90.2724 61.7275H86.9208ZM87.791 60.9749H90.2254C90.9545 60.9749 91.5856 60.8338 92.1187 60.5515C92.6597 60.2615 93.0791 59.8655 93.377 59.3638C93.675 58.8542 93.8239 58.2701 93.8239 57.6115C93.8239 56.9451 93.675 56.3611 93.377 55.8593C93.0791 55.3575 92.6597 54.9655 92.1187 54.6833C91.5856 54.3932 90.9545 54.2482 90.2254 54.2482H87.791V60.9749ZM104.469 57.1764H108.82V57.9173H104.469V57.1764ZM104.563 60.9749H109.514V61.7275H103.693V53.4955H109.337V54.2482H104.563V60.9749ZM120.885 61.7981C120.274 61.7981 119.686 61.7001 119.121 61.5041C118.564 61.3003 118.133 61.0415 117.827 60.7279L118.169 60.0576C118.459 60.3399 118.847 60.579 119.333 60.775C119.827 60.9631 120.344 61.0572 120.885 61.0572C121.403 61.0572 121.822 60.9945 122.143 60.8691C122.473 60.7358 122.712 60.5594 122.861 60.3399C123.018 60.1203 123.096 59.8773 123.096 59.6107C123.096 59.2893 123.002 59.0306 122.814 58.8346C122.633 58.6386 122.394 58.4857 122.096 58.3759C121.798 58.2583 121.469 58.1564 121.109 58.0702C120.748 57.9839 120.387 57.8938 120.027 57.7997C119.666 57.6978 119.333 57.5645 119.027 57.3999C118.729 57.2352 118.486 57.0196 118.298 56.7531C118.118 56.4787 118.027 56.1219 118.027 55.6829C118.027 55.2752 118.133 54.9028 118.345 54.5657C118.564 54.2207 118.898 53.9463 119.345 53.7425C119.791 53.5308 120.364 53.425 121.061 53.425C121.524 53.425 121.983 53.4916 122.437 53.6249C122.892 53.7503 123.284 53.9267 123.613 54.1541L123.319 54.8479C122.967 54.6127 122.59 54.4403 122.19 54.3305C121.798 54.2207 121.418 54.1659 121.05 54.1659C120.556 54.1659 120.148 54.2325 119.827 54.3658C119.505 54.4991 119.266 54.6794 119.109 54.9067C118.96 55.1263 118.886 55.3771 118.886 55.6594C118.886 55.9808 118.976 56.2395 119.156 56.4355C119.345 56.6315 119.588 56.7844 119.885 56.8942C120.191 57.0039 120.524 57.1019 120.885 57.1882C121.246 57.2744 121.602 57.3685 121.955 57.4704C122.316 57.5723 122.645 57.7056 122.943 57.8703C123.249 58.0271 123.492 58.2387 123.672 58.5053C123.86 58.7719 123.954 59.1207 123.954 59.5519C123.954 59.9518 123.845 60.3242 123.625 60.6691C123.406 61.0063 123.069 61.2807 122.614 61.4923C122.167 61.6962 121.591 61.7981 120.885 61.7981ZM132.907 61.7275V53.4955H133.777V61.7275H132.907ZM147.122 61.7981C146.494 61.7981 145.914 61.6962 145.381 61.4923C144.856 61.2807 144.397 60.9867 144.005 60.6103C143.621 60.234 143.319 59.7911 143.1 59.2815C142.888 58.7719 142.782 58.2152 142.782 57.6115C142.782 57.0079 142.888 56.4512 143.1 55.9416C143.319 55.432 143.625 54.9891 144.017 54.6127C144.409 54.2364 144.868 53.9463 145.393 53.7425C145.926 53.5308 146.506 53.425 147.133 53.425C147.76 53.425 148.333 53.523 148.85 53.719C149.376 53.915 149.822 54.2129 150.191 54.6127L149.65 55.1655C149.305 54.8205 148.925 54.5735 148.509 54.4246C148.094 54.2756 147.647 54.2011 147.169 54.2011C146.659 54.2011 146.189 54.2874 145.757 54.4599C145.334 54.6245 144.962 54.8636 144.64 55.1772C144.327 55.483 144.08 55.8436 143.899 56.2591C143.727 56.6668 143.641 57.1176 143.641 57.6115C143.641 58.0976 143.727 58.5484 143.899 58.9639C144.08 59.3795 144.327 59.744 144.64 60.0576C144.962 60.3634 145.334 60.6025 145.757 60.775C146.189 60.9396 146.655 61.0219 147.157 61.0219C147.627 61.0219 148.07 60.9514 148.486 60.8103C148.909 60.6691 149.297 60.43 149.65 60.0929L150.144 60.7515C149.752 61.0964 149.293 61.3591 148.768 61.5394C148.243 61.7119 147.694 61.7981 147.122 61.7981ZM149.309 60.6456V57.6115H150.144V60.7515L149.309 60.6456ZM159.663 61.7275V53.4955H160.38L166.06 60.6456H165.684V53.4955H166.542V61.7275H165.825L160.157 54.5775H160.533V61.7275H159.663ZM186.419 61.7275V53.4955H187.289V60.9749H191.899V61.7275H186.419ZM199.083 61.7275L202.846 53.4955H203.705L207.468 61.7275H206.551L203.093 54.0012H203.446L199.989 61.7275H199.083ZM200.565 59.5284L200.824 58.8228H205.61L205.869 59.5284H200.565ZM215.886 61.7275V53.4955H219.437C220.355 53.4955 221.064 53.6798 221.566 54.0483C222.075 54.4167 222.33 54.9381 222.33 55.6123C222.33 56.0592 222.224 56.4355 222.013 56.7413C221.809 57.0471 221.527 57.2783 221.166 57.4351C220.813 57.5919 220.425 57.6703 220.002 57.6703L220.202 57.3881C220.727 57.3881 221.178 57.4704 221.554 57.6351C221.938 57.7919 222.236 58.031 222.448 58.3524C222.66 58.666 222.765 59.058 222.765 59.5284C222.765 60.2262 222.507 60.7671 221.989 61.1513C221.48 61.5355 220.707 61.7275 219.672 61.7275H215.886ZM216.756 61.0102H219.661C220.382 61.0102 220.935 60.8887 221.319 60.6456C221.703 60.3947 221.895 59.9988 221.895 59.4579C221.895 58.9247 221.703 58.5367 221.319 58.2936C220.935 58.0427 220.382 57.9173 219.661 57.9173H216.662V57.1999H219.378C220.037 57.1999 220.547 57.0745 220.907 56.8236C221.276 56.5727 221.46 56.2003 221.46 55.7064C221.46 55.2047 221.276 54.8323 220.907 54.5892C220.547 54.3383 220.037 54.2129 219.378 54.2129H216.756V61.0102Z" fill="white"/>
<defs>
<clipPath id="clip0_37_6">
<rect width="72" height="72" fill="white"/>
</clipPath>
</defs>
</svg>
